<?xml version="1.0" encoding="utf-8"?>
<!-- Generator: Adobe Illustrator 17.0.0, SVG Export Plug-In . SVG Version: 6.00 Build 0)  -->
<!DOCTYPE svg PUBLIC "-//W3C//DTD SVG 1.1//EN" "http://www.w3.org/Graphics/SVG/1.1/DTD/svg11.dtd">
<svg version="1.1" id="Layer_1" xmlns="http://www.w3.org/2000/svg" xmlns:xlink="http://www.w3.org/1999/xlink" x="0px" y="0px"
	 width="2000px" height="2000px" viewBox="0 0 2000 2000" enable-background="new 0 0 2000 2000" xml:space="preserve">
<g>
	<g>
		<g>
			<path d="M852.435,883.899c-6.73-6.855-10.699-14.78-15.917-22.634c-0.806-1.213-2.606-0.441-2.313,0.975
				c1.915,9.277,9.246,17.695,16.274,23.614C851.825,886.987,853.703,885.19,852.435,883.899L852.435,883.899z"/>
		</g>
	</g>
	<g>
		<g>
			<path d="M898.526,863.604c-6.294-20.508-15.289-42.043-28.933-58.845c-1.182-1.456-3.224,0.396-2.466,1.903
				c4.86,9.663,10.629,18.879,15.545,28.529c4.884,9.587,9.476,19.427,13.67,29.334
				C896.874,865.785,898.917,864.879,898.526,863.604L898.526,863.604z"/>
		</g>
	</g>
	<g>
		<g>
			<path d="M958.092,847.719c-3.102-8.552-4.966-17.165-6.977-26.006c-0.176-0.775-1.41-0.604-1.381,0.187
				c0.329,9.106,3.225,18.166,7.116,26.343C957.18,848.936,958.354,848.442,958.092,847.719L958.092,847.719z"/>
		</g>
	</g>
	<g>
		<g>
			<path d="M997.948,821.329c-2.12-12.513-4.368-24.977-7.044-37.388c-2.644-12.26-5.246-24.9-9.566-36.693
				c-0.443-1.208-2.521-1.133-2.394,0.324c1.047,12.004,3.836,24.068,6.528,35.796c2.981,12.985,6.341,25.838,9.9,38.671
				C995.84,823.73,998.23,822.996,997.948,821.329L997.948,821.329z"/>
		</g>
	</g>
	<g>
		<g>
			<path d="M1047.638,819.689c0.369-7.447,0.989-14.542,0.437-22.009c-0.071-0.961-1.645-1.323-1.796-0.243
				c-1.044,7.496-0.914,14.708-1.032,22.252C1045.223,821.238,1047.562,821.22,1047.638,819.689L1047.638,819.689z"/>
		</g>
	</g>
	<g>
		<g>
			<path d="M1091.649,815.374c2.913-5.171,4.692-11.263,6.459-16.913c2.145-6.861,4.325-13.712,6.373-20.603
				c2.047-6.888,3.86-13.841,5.778-20.766c1.763-6.366,3.865-12.903,4.714-19.46c0.201-1.554-2.268-2.141-2.926-0.793
				c-5.668,11.616-9.037,25.19-12.766,37.553c-2.076,6.88-4.044,13.79-6.022,20.699c-1.806,6.309-3.948,12.958-4.404,19.526
				C1088.748,816.133,1090.942,816.629,1091.649,815.374L1091.649,815.374z"/>
		</g>
	</g>
	<g>
		<g>
			<path d="M1133.325,824.407c4.017-4.534,6.568-9.606,6.944-15.713c0.047-0.762-1.08-0.863-1.289-0.174
				c-1.556,5.124-3.75,10.219-7.08,14.462C1131.119,823.978,1132.446,825.4,1133.325,824.407L1133.325,824.407z"/>
		</g>
	</g>
	<g>
		<g>
			<path d="M1173.267,859.888c9.39-10.377,20.654-19.946,31.71-28.512c5.855-4.536,11.897-8.841,18.129-12.845
				c5.934-3.812,12.553-6.895,18.244-11.016c1.461-1.058,0.63-3.479-1.264-2.999c-6.877,1.743-13.665,5.72-19.77,9.242
				c-6.389,3.685-12.479,7.822-18.288,12.364c-5.975,4.671-11.945,9.741-16.979,15.428c-4.853,5.483-8.996,11.258-13.291,17.173
				C1171.112,859.612,1172.542,860.689,1173.267,859.888L1173.267,859.888z"/>
		</g>
	</g>
	<g>
		<g>
			<path d="M1239.203,875.378c6.008,0.85,12.523-0.654,18.622-0.654c7.925,0,15.712,1.014,23.522,2.246
				c1.133,0.179,1.555-1.304,0.474-1.718c-7.138-2.727-14.547-3.887-22.145-4.31c-6.363-0.354-14.985-0.377-20.68,2.851
				C1238.399,874.132,1238.431,875.269,1239.203,875.378L1239.203,875.378z"/>
		</g>
	</g>
	<g>
		<g>
			<path d="M820.588,892.906c-0.345-0.233-0.683-0.492-1.054-0.681c-0.389-0.198-1.022-0.058-1.102,0.448
				c-0.08,0.506-0.082,1.017-0.102,1.528c-0.043,1.148,1.303,1.854,2.257,1.295C821.607,894.9,821.505,893.525,820.588,892.906
				L820.588,892.906z"/>
		</g>
	</g>
	<g>
		<g>
			<path d="M803.77,870.053c2.083,0,3.82-1.738,3.82-3.82s-1.738-3.82-3.82-3.82s-3.82,1.738-3.82,3.82
				S801.688,870.053,803.77,870.053L803.77,870.053z"/>
		</g>
	</g>
	<g>
		<g>
			<path d="M843.77,895.147c1.179,0,1.179-1.828,0-1.828S842.591,895.147,843.77,895.147L843.77,895.147z"/>
		</g>
	</g>
	<g>
		<g>
			<path d="M860.437,835.899c1.635,0,3-1.365,3-3c0-1.635-1.365-3-3-3c-1.635,0-3,1.365-3,3
				C857.437,834.535,858.801,835.899,860.437,835.899L860.437,835.899z"/>
		</g>
	</g>
	<g>
		<g>
			<path d="M875.103,873.16c2.056,0,2.056-3.188,0-3.188C873.048,869.972,873.048,873.16,875.103,873.16L875.103,873.16z"/>
		</g>
	</g>
	<g>
		<g>
			<path d="M919.502,818.538c0.131,0.026,0.261,0.051,0.392,0.077c2.714,0.533,0.573-3.801-0.65-1.598
				c-0.232,0.418-0.232,0.679,0,1.098c1.223,2.203,3.364-2.13,0.65-1.598c-0.131,0.026-0.261,0.051-0.392,0.077
				C918.537,816.784,918.537,818.348,919.502,818.538L919.502,818.538z"/>
		</g>
	</g>
	<g>
		<g>
			<path d="M946.908,854.428c0.298,0.331,0.589,0.541,0.996,0.716c1.006,0.43,1.873-0.437,1.443-1.443
				c-0.174-0.408-0.384-0.698-0.716-0.996C947.462,851.651,945.856,853.257,946.908,854.428L946.908,854.428z"/>
		</g>
	</g>
	<g>
		<g>
			<path d="M903.567,835.845c0.015-0.063,0.03-0.125,0.045-0.188c0.248-1.03-0.119-2.475-1.196-2.938
				c-0.062-0.027-0.125-0.054-0.187-0.08c0.267,0.267,0.534,0.534,0.801,0.801c-0.174-0.352-0.397-0.649-0.691-0.909
				c-0.746-0.661-1.725-0.661-2.471,0c-0.294,0.261-0.517,0.557-0.691,0.909c0.267-0.267,0.534-0.534,0.801-0.801
				c-0.062,0.027-0.125,0.054-0.187,0.08c-1.077,0.463-1.444,1.908-1.196,2.938c0.015,0.063,0.03,0.125,0.045,0.188
				C899.229,838.289,902.978,838.289,903.567,835.845L903.567,835.845z"/>
		</g>
	</g>
	<g>
		<g>
			<path d="M920.239,799.69c2.043,0,3.748-1.705,3.748-3.748c0-2.043-1.705-3.748-3.748-3.748c-2.043,0-3.748,1.705-3.748,3.748
				C916.491,797.985,918.196,799.69,920.239,799.69L920.239,799.69z"/>
		</g>
	</g>
	<g>
		<g>
			<path d="M986.8,830.471c-0.374-0.224-0.729-0.52-1.187-0.479c-0.409,0.036-0.667,0.294-0.703,0.703
				c-0.041,0.458,0.255,0.813,0.479,1.187c0.342,0.569,1.145,0.683,1.62,0.209C987.483,831.616,987.369,830.813,986.8,830.471
				L986.8,830.471z"/>
		</g>
	</g>
	<g>
		<g>
			<path d="M953.813,805.447c0.123-0.074,0.247-0.148,0.37-0.222c0.744-0.446,0.744-1.538,0-1.984
				c-0.123-0.074-0.247-0.148-0.37-0.222c-0.918-0.551-2.116,0.158-2.116,1.214C951.697,805.289,952.895,805.998,953.813,805.447
				L953.813,805.447z"/>
		</g>
	</g>
	<g>
		<g>
			<path d="M1039.613,786.294c2.325,0,4.266-1.94,4.266-4.266c0-2.325-1.94-4.266-4.266-4.266c-2.325,0-4.266,1.94-4.266,4.266
				C1035.347,784.353,1037.287,786.294,1039.613,786.294L1039.613,786.294z"/>
		</g>
	</g>
	<g>
		<g>
			<path d="M1036.315,818.658c0.683-0.975,0.312-2.529-0.676-3.158c0.229,0.297,0.457,0.595,0.686,0.892
				c-0.05-0.163-0.101-0.327-0.151-0.49c-0.243-0.79-1.456-1.317-2.055-0.542c-0.096,0.125-0.193,0.249-0.289,0.374
				c0.219-0.128,0.439-0.256,0.659-0.384c-0.443,0.092-0.745,0.353-1.011,0.695c-0.545,0.701-0.779,1.276-0.552,2.171
				c0.158,0.623,0.681,1.126,1.295,1.295C1035.073,819.744,1035.832,819.346,1036.315,818.658L1036.315,818.658z"/>
		</g>
	</g>
	<g>
		<g>
			<path d="M1021.111,794.512c-0.227-0.205-0.157-0.011,0.21,0.581c-0.063,0.233-0.126,0.466-0.189,0.698
				c0.082-0.118,0.14-0.249,0.176-0.392c-0.032,0.117,0.119-0.934,0.01-0.257c0.09-0.56,0.004-1.18-0.457-1.57
				c0.136,0.328,0.271,0.655,0.407,0.983c-0.011-0.15-0.023-0.116-0.036,0.101c-0.069,0.182-0.078,0.214-0.026,0.096
				c0.314-0.694,0.075-1.464-0.695-1.707c-0.589-0.186-1.218,0.088-1.615,0.528c0.204-0.119,0.409-0.238,0.613-0.357
				c-1.064,0.371-1.438,1.482-0.91,2.455c0.382,0.705,1.246,0.975,1.995,0.801C1021.405,796.281,1021.787,795.075,1021.111,794.512
				L1021.111,794.512z"/>
		</g>
	</g>
	<g>
		<g>
			<path d="M1082.279,816.955c2.056,0,2.056-3.188,0-3.188S1080.224,816.955,1082.279,816.955L1082.279,816.955z"/>
		</g>
	</g>
	<g>
		<g>
			<path d="M1060.474,792.852c2.37,0,4.348-1.978,4.348-4.348s-1.978-4.348-4.348-4.348s-4.348,1.978-4.348,4.348
				S1058.104,792.852,1060.474,792.852L1060.474,792.852z"/>
		</g>
	</g>
	<g>
		<g>
			<path d="M1072.279,775.95c1.048,0,1.922-0.874,1.922-1.922c0-1.048-0.874-1.922-1.922-1.922s-1.922,0.874-1.922,1.922
				C1070.358,775.076,1071.232,775.95,1072.279,775.95L1072.279,775.95z"/>
		</g>
	</g>
	<g>
		<g>
			<path d="M1135.161,837.118c-0.092-0.258-0.184-0.513-0.315-0.755c-0.23-0.427-0.903-0.427-1.133,0
				c-0.13,0.242-0.223,0.497-0.315,0.755c-0.201,0.567,0.32,1.157,0.881,1.157S1135.362,837.686,1135.161,837.118L1135.161,837.118z
				"/>
		</g>
	</g>
	<g>
		<g>
			<path d="M1103.411,828.89c0.966-0.535,1.712-1.284,2.249-2.248c0.216-0.486,0.424-0.975,0.624-1.469
				c0.325-1.183,0.152-1.769-0.015-2.957c-0.219-1.564-2.066-3.412-3.63-3.63c-0.51-0.071-1.02-0.14-1.53-0.206
				c-0.969,0.003-1.872,0.247-2.709,0.733c-1.045,0.463-1.887,1.342-2.435,2.332c-1.188,2.147-0.908,4.835,0.851,6.595
				C1098.576,829.798,1101.264,830.079,1103.411,828.89L1103.411,828.89z"/>
		</g>
	</g>
	<g>
		<g>
			<path d="M1113.033,808.37c-0.167,0.076-0.333,0.152-0.5,0.229c0.346-0.045,0.692-0.091,1.038-0.136
				c-1.653-0.581-3.116,1.46-1.818,2.759c1.299,1.299,3.34-0.165,2.759-1.818c-0.045,0.346-0.09,0.692-0.136,1.038
				c0.076-0.167,0.153-0.333,0.229-0.5C1115.096,808.865,1114.109,807.878,1113.033,808.37L1113.033,808.37z"/>
		</g>
	</g>
	<g>
		<g>
			<path d="M1117.49,829.626c0.123-0.075,0.245-0.15,0.365-0.231c0.521-0.352,0.521-1.048,0-1.4
				c-0.12-0.081-0.242-0.156-0.365-0.231c-0.702-0.43-1.622,0.127-1.622,0.931S1116.788,830.056,1117.49,829.626L1117.49,829.626z"
				/>
		</g>
	</g>
	<g>
		<g>
			<path d="M1162.432,808.902c0.083-0.324,0.009-0.173-0.222,0.453c0.169-0.285,0.058-0.15-0.333,0.405
				c0.315-0.37-0.881,0.523-0.225,0.207c-0.6,0.162-1.2,0.325-1.8,0.487c0.034,0,0.068,0.001,0.102,0.001
				c-0.857-0.355-1.714-0.71-2.571-1.065c0.049,0.06,0.098,0.121,0.147,0.181c1.099,1.36,3.738,1.692,5.146,0.664
				c0.16-0.117,0.323-0.213,0.506-0.29c-0.318,0.134-0.637,0.269-0.955,0.403c0.145-0.052,0.286-0.09,0.439-0.112
				c-0.338,0.045-0.675,0.091-1.012,0.136c0.839-0.065,1.497-0.195,2.215-0.65c-1.124,0-2.248,0-3.372,0
				c0.633,0.28-0.51-0.517-0.173-0.17c-0.324-0.464-0.416-0.562-0.276-0.295c0.167,0.347,0.45,0.628,0.72,0.897
				c-0.213-0.808-0.427-1.615-0.64-2.423c-0.099,0.38,0.317-0.514-0.026,0.044c0.229-0.279,0.261-0.326,0.097-0.142
				c-0.331,0.359,0.407-0.28,0.011,0.008c-0.074,0.051-0.152,0.097-0.233,0.137c0.286-0.112,0.325-0.137,0.116-0.075
				c0.3-0.04,0.343-0.049,0.129-0.028c-0.14,0.012-0.43-0.052-0.049,0.032c-1.091-0.241-2.344,0.734-1.932,1.932
				c0.459,1.332,1.543,1.955,2.918,2.006c1.476,0.055,2.68-0.892,3.521-1.993c-0.496,0.381-0.992,0.763-1.488,1.144
				c1.57-0.526,2.36-1.575,2.494-3.193c0.07-0.849-0.206-1.718-0.618-2.45c0.152,0.562,0.304,1.124,0.456,1.686
				c0.06-2.183-1.747-4.024-3.861-4.363c-1.176-0.189-2.205-0.197-3.272,0.428c-1.165,0.682-2.287,2.236-2.103,3.667
				c0.043-0.21,0.085-0.419,0.128-0.629c0.306-0.524,0.611-1.049,0.917-1.573c-0.576,0.689-0.935,1.185-1.215,2.04
				c-0.285,0.87-0.198,1.618-0.057,2.495c0.23,1.43,1.839,2.426,3.187,2.426C1160.671,811.329,1162.101,810.326,1162.432,808.902
				L1162.432,808.902z"/>
		</g>
	</g>
	<g>
		<g>
			<path d="M1160.946,839.096c0.945,0,1.734-0.789,1.734-1.734s-0.789-1.734-1.734-1.734s-1.734,0.789-1.734,1.734
				S1160.001,839.096,1160.946,839.096L1160.946,839.096z"/>
		</g>
	</g>
	<g>
		<g>
			<path d="M1175.613,820.455c1.686,0,3.094-1.407,3.094-3.094s-1.407-3.094-3.094-3.094c-1.687,0-3.094,1.407-3.094,3.094
				S1173.926,820.455,1175.613,820.455L1175.613,820.455z"/>
		</g>
	</g>
	<g>
		<g>
			<path d="M1150.946,821.95c0.127-0.008,0.254-0.015,0.381-0.023c0.788-0.048,1.679-0.538,1.831-1.394
				c0.003-0.017,0.006-0.033,0.009-0.05c-0.262,0.341-0.524,0.682-0.786,1.022c0.104-0.041,0.197-0.099,0.279-0.174
				c0.96-0.726,0.96-1.879,0-2.605c-0.083-0.075-0.176-0.133-0.279-0.174c0.262,0.341,0.524,0.682,0.786,1.022
				c-0.003-0.017-0.006-0.033-0.009-0.05c-0.152-0.856-1.043-1.346-1.831-1.394c-0.127-0.008-0.254-0.015-0.381-0.023
				c-1.047-0.063-1.922,0.922-1.922,1.922C1149.024,821.028,1149.899,822.013,1150.946,821.95L1150.946,821.95z"/>
		</g>
	</g>
	<g>
		<g>
			<path d="M1196.706,874.378c-0.44-0.467-0.867-1.069-1.53-1.207c-0.432-0.09-0.985,0.043-1.191,0.485
				c-0.354,0.761-0.12,1.508,0.018,2.296c0.183,1.045,1.539,1.456,2.376,0.966C1197.299,876.379,1197.418,875.135,1196.706,874.378
				L1196.706,874.378z"/>
		</g>
	</g>
	<g>
		<g>
			<path d="M1195.563,864.985c1.028,0,1.028-1.594,0-1.594C1194.535,863.391,1194.535,864.985,1195.563,864.985L1195.563,864.985z"
				/>
		</g>
	</g>
	<g>
		<g>
			<path d="M1211.641,851.952c0.206-0.075,0.412-0.149,0.618-0.224c1.02-0.37,1.826-1.039,2.124-2.124
				c0.312-1.136-0.082-2.087-0.782-2.959c-0.14-0.175-0.281-0.349-0.421-0.524c-0.755-0.94-2.296-1.199-3.394-0.897
				c-1.172,0.323-2.114,1.264-2.437,2.437c-0.33,1.201,0.017,2.515,0.897,3.394C1209.073,851.882,1210.496,852.367,1211.641,851.952
				L1211.641,851.952z"/>
		</g>
	</g>
	<g>
		<g>
			<path d="M1223.517,872.128c-0.352-0.653-0.71-1.761-1.432-2.068c-0.433-0.184-0.968-0.147-1.219,0.32
				c-0.439,0.819,0,1.933,0.166,2.796c0.141,0.728,1,1.134,1.672,0.949C1223.573,873.886,1223.932,872.897,1223.517,872.128
				L1223.517,872.128z"/>
		</g>
	</g>
	<g>
		<g>
			<path d="M1255.563,914.543c0.92,0,1.688-0.768,1.688-1.688c0-0.92-0.768-1.688-1.688-1.688c-0.92,0-1.688,0.768-1.688,1.688
				C1253.875,913.775,1254.643,914.543,1255.563,914.543L1255.563,914.543z"/>
		</g>
	</g>
	<g>
		<g>
			<path d="M1249.402,888.987c0.73-0.166,1.321-0.593,1.852-1.098c1.048-0.999,1.431-2.597,1.051-3.978
				c-0.482-1.754-2.124-3.001-3.942-3.001c-1.818,0-3.46,1.248-3.942,3.001c-0.195,0.725-0.195,1.449,0,2.174
				c0.255,0.925,0.963,2.038,1.879,2.443c0.351,0.156,0.704,0.306,1.061,0.45C1248.067,889.172,1248.698,889.147,1249.402,888.987
				L1249.402,888.987z"/>
		</g>
	</g>
	<g>
		<g>
			<path d="M1237.563,843.608c2.69,0,2.69-4.172,0-4.172C1234.872,839.436,1234.872,843.608,1237.563,843.608L1237.563,843.608z"/>
		</g>
	</g>
	<g>
		<g>
			<path d="M1208.713,1123.711c3.146,2.834,6.046,5.946,8.735,9.213c3.215,3.906,5.496,8.422,8.545,12.406
				c0.83,1.084,2.701,0.511,2.313-0.975c-2.418-9.272-10.482-17.295-17.918-22.816
				C1209.12,1120.597,1207.558,1122.671,1208.713,1123.711L1208.713,1123.711z"/>
		</g>
	</g>
	<g>
		<g>
			<path d="M1163.977,1146.751c7.525,20.074,17.757,41.052,32.4,56.986c1.226,1.334,3.352-0.379,2.466-1.903
				c-5.428-9.34-11.739-18.177-17.225-27.5c-5.467-9.292-10.658-18.853-15.457-28.505
				C1165.563,1144.624,1163.501,1145.479,1163.977,1146.751L1163.977,1146.751z"/>
		</g>
	</g>
	<g>
		<g>
			<path d="M1122.209,1136.301c3.594,8.296,5.944,16.724,8.473,25.372c0.215,0.737,1.46,0.626,1.381-0.187
				c-0.884-9.063-4.298-17.944-8.68-25.871C1122.949,1134.829,1121.87,1135.519,1122.209,1136.301L1122.209,1136.301z"/>
		</g>
	</g>
	<g>
		<g>
			<path d="M1085.649,1140.505c2.866,12.337,5.859,24.618,9.276,36.82c3.421,12.213,6.843,24.775,11.921,36.416
				c0.6,1.376,2.413,0.301,2.228-0.939c-1.856-12.44-5.616-24.801-9.163-36.851c-3.581-12.164-7.565-24.169-11.685-36.156
				C1087.668,1138.174,1085.257,1138.816,1085.649,1140.505L1085.649,1140.505z"/>
		</g>
	</g>
	<g>
		<g>
			<path d="M1036.172,1145.16c0.084,7.545-0.078,14.754,0.931,22.255c0.146,1.083,1.72,0.714,1.795-0.243
				c0.585-7.465-0.001-14.563-0.336-22.012C1038.494,1143.628,1036.155,1143.612,1036.172,1145.16L1036.172,1145.16z"/>
		</g>
	</g>
	<g>
		<g>
			<path d="M992.55,1152.128c-5.599,11.542-7.645,25.69-10.533,38.129c-1.627,7.008-3.018,14.066-4.514,21.103
				c-1.376,6.469-3.121,13.16-3.565,19.766c-0.129,1.924,2.463,1.918,3.085,0.417c2.465-5.954,3.838-12.578,5.437-18.818
				c1.783-6.959,3.672-13.89,5.325-20.88c1.505-6.361,2.893-12.748,4.307-19.129c1.421-6.411,3.201-13.244,3.255-19.833
				C995.357,1151.457,993.218,1150.751,992.55,1152.128L992.55,1152.128z"/>
		</g>
	</g>
	<g>
		<g>
			<path d="M950.4,1145.674c-3.745,4.793-5.999,9.96-6.021,16.109c-0.003,0.734,1.116,0.903,1.289,0.174
				c1.261-5.309,3.199-10.543,6.315-15.063C952.629,1145.958,951.105,1144.773,950.4,1145.674L950.4,1145.674z"/>
		</g>
	</g>
	<g>
		<g>
			<path d="M876.052,1162.911c-8.715,10.897-19.352,21.1-29.838,30.292c-5.575,4.887-11.315,9.585-17.299,13.964
				c-5.83,4.265-12.367,7.826-17.932,12.395c-1.286,1.056,0.09,3.223,1.596,2.742c6.752-2.156,13.249-6.481,19.126-10.364
				c6.153-4.066,11.959-8.571,17.522-13.407c11.58-10.067,20.162-21.629,28.334-34.458
				C878.141,1163.167,876.74,1162.052,876.052,1162.911L876.052,1162.911z"/>
		</g>
	</g>
	<g>
		<g>
			<path d="M809.078,1151.471c-6.512-0.532-13.527,1.516-20.101,1.907c-7.374,0.438-14.742-0.239-22.067-0.941
				c-1.039-0.1-1.156,1.46-0.237,1.749c7.274,2.287,14.704,3.014,22.303,2.975c6.392-0.033,15.059-0.517,20.539-4.075
				C810.267,1152.6,809.934,1151.541,809.078,1151.471L809.078,1151.471z"/>
		</g>
	</g>
	<g>
		<g>
			<path d="M1239.936,1112.803c0.372,0.219,0.738,0.464,1.133,0.638c0.545,0.239,1.07-0.046,1.129-0.648
				c0.041-0.425,0.005-0.859-0.005-1.286c-0.026-1.128-1.258-1.881-2.257-1.295
				C1238.963,1110.783,1238.965,1112.231,1239.936,1112.803L1239.936,1112.803z"/>
		</g>
	</g>
	<g>
		<g>
			<path d="M1258.421,1142.271c2.083,0,3.82-1.738,3.82-3.82s-1.738-3.82-3.82-3.82s-3.82,1.738-3.82,3.82
				S1256.338,1142.271,1258.421,1142.271L1258.421,1142.271z"/>
		</g>
	</g>
	<g>
		<g>
			<path d="M1216.796,1113.842c1.179,0,1.179-1.828,0-1.828C1215.617,1112.014,1215.617,1113.842,1216.796,1113.842
				L1216.796,1113.842z"/>
		</g>
	</g>
	<g>
		<g>
			<path d="M1203.879,1178.159c1.635,0,3-1.365,3-3s-1.365-3-3-3s-3,1.365-3,3S1202.244,1178.159,1203.879,1178.159
				L1203.879,1178.159z"/>
		</g>
	</g>
	<g>
		<g>
			<path d="M1186.895,1139.047c2.056,0,2.056-3.188,0-3.188S1184.839,1139.047,1186.895,1139.047L1186.895,1139.047z"/>
		</g>
	</g>
	<g>
		<g>
			<path d="M1145.585,1193.054c-0.137-0.018-0.275-0.036-0.412-0.055c-2.368-0.314-0.161,3.908,0.939,1.636
				c0.203-0.419,0.261-0.689,0-1.098c-1.442-2.258-3.178,2.256-0.65,1.598c0.13-0.034,0.261-0.068,0.391-0.102
				C1147.045,1194.723,1146.638,1193.194,1145.585,1193.054L1145.585,1193.054z"/>
		</g>
	</g>
	<g>
		<g>
			<path d="M1132.963,1128.854c-0.394-0.388-0.769-0.596-1.287-0.78c-0.941-0.334-1.569,0.791-1.191,1.549
				c0.194,0.39,0.412,0.681,0.755,0.954c0.519,0.413,1.214,0.509,1.724,0C1133.43,1130.11,1133.437,1129.32,1132.963,1128.854
				L1132.963,1128.854z"/>
		</g>
	</g>
	<g>
		<g>
			<path d="M1160.687,1174.683c-0.011,0.062-0.022,0.125-0.033,0.187c-0.259,1.468,0.38,2.704,1.817,3.2
				c0.041,0.014,0.082,0.028,0.123,0.042c-0.444-0.342-0.889-0.684-1.333-1.026c0.2,0.349,0.423,0.658,0.74,0.908
				c0.747,0.592,1.738,0.73,2.471,0c0.439-0.437,0.631-0.875,0.867-1.441c-0.342,0.444-0.684,0.889-1.025,1.333
				c0.054-0.026,0.108-0.053,0.163-0.08c1.015-0.497,1.517-1.888,1.196-2.938c-0.019-0.062-0.038-0.125-0.057-0.187
				c-0.334-1.091-1.302-1.876-2.463-1.876C1162.095,1172.808,1160.882,1173.579,1160.687,1174.683L1160.687,1174.683z"/>
		</g>
	</g>
	<g>
		<g>
			<path d="M1146.428,1219.422c2.043,0,3.748-1.705,3.748-3.748s-1.705-3.748-3.748-3.748s-3.748,1.705-3.748,3.748
				S1144.385,1219.422,1146.428,1219.422L1146.428,1219.422z"/>
		</g>
	</g>
	<g>
		<g>
			<path d="M1096.191,1130.752c0.486,0.253,0.848,0.495,1.413,0.413c0.311-0.046,0.507-0.394,0.516-0.678
				c0.015-0.469-0.267-0.779-0.519-1.146c-0.372-0.542-1.124-0.705-1.62-0.209
				C1095.53,1129.585,1095.597,1130.443,1096.191,1130.752L1096.191,1130.752z"/>
		</g>
	</g>
	<g>
		<g>
			<path d="M1129.06,1178.067c-0.123,0.084-0.246,0.168-0.369,0.252c-0.669,0.458-0.817,1.56,0,1.984
				c0.123,0.064,0.246,0.128,0.369,0.192c0.932,0.484,2.116-0.108,2.116-1.214
				C1131.176,1178.273,1129.959,1177.452,1129.06,1178.067L1129.06,1178.067z"/>
		</g>
	</g>
	<g>
		<g>
			<path d="M1046.468,1186.604c2.325,0,4.266-1.94,4.266-4.266c0-2.325-1.94-4.266-4.266-4.266c-2.325,0-4.266,1.94-4.266,4.266
				C1042.202,1184.663,1044.143,1186.604,1046.468,1186.604L1046.468,1186.604z"/>
		</g>
	</g>
	<g>
		<g>
			<path d="M1047.593,1145.477c-0.601,0.975-0.332,2.578,0.733,3.166c-0.229-0.297-0.457-0.595-0.686-0.892
				c0.062,0.165,0.123,0.33,0.185,0.495c0.38,1.017,1.621,1.208,2.247,0.294c0.099-0.144,0.197-0.288,0.296-0.432
				c-0.297,0.229-0.595,0.457-0.892,0.686c1.162-0.311,1.858-1.771,1.505-2.874
				C1050.492,1144.389,1048.453,1144.08,1047.593,1145.477L1047.593,1145.477z"/>
		</g>
	</g>
	<g>
		<g>
			<path d="M1064.364,1168.89c-0.144-0.262-0.289-0.524-0.433-0.785c0.063-0.233,0.126-0.466,0.189-0.698
				c-0.142,0.246-0.223,0.491-0.223,0.777c0.017,0.129,0.035,0.259,0.052,0.388c-0.024-0.243-0.04-0.283-0.048-0.119
				c-0.058,0.589,0.382,1.066,0.804,1.385c-0.213-0.277-0.426-0.554-0.639-0.83c-0.065-0.351,0.177-0.948-0.08-0.27
				c-0.222,0.583,0.24,1.286,0.812,1.43c0.558,0.14,0.985-0.037,1.418-0.373c0.047-0.031,0.088-0.068,0.124-0.112
				c-0.28,0.209-0.241,0.177,0.117-0.097c0.293-0.293,0.478-0.719,0.478-1.133c0-0.712-0.492-1.484-1.191-1.676
				c-0.475-0.06-0.517-0.068-0.128-0.025c-0.133-0.047-0.272-0.07-0.415-0.069c-0.185-0.023-0.379,0.012-0.557,0.065
				C1063.603,1167.059,1063.568,1168.305,1064.364,1168.89L1064.364,1168.89z"/>
		</g>
	</g>
	<g>
		<g>
			<path d="M1001.859,1153.247c2.055,0,2.055-3.188,0-3.188C999.803,1150.059,999.803,1153.247,1001.859,1153.247L1001.859,1153.247
				z"/>
		</g>
	</g>
	<g>
		<g>
			<path d="M1025.253,1181.486c2.37,0,4.348-1.978,4.348-4.348s-1.978-4.348-4.348-4.348s-4.348,1.978-4.348,4.348
				S1022.883,1181.486,1025.253,1181.486L1025.253,1181.486z"/>
		</g>
	</g>
	<g>
		<g>
			<path d="M1014.347,1194.226c1.048,0,1.922-0.874,1.922-1.922s-0.874-1.922-1.922-1.922c-1.048,0-1.922,0.874-1.922,1.922
				S1013.299,1194.226,1014.347,1194.226L1014.347,1194.226z"/>
		</g>
	</g>
	<g>
		<g>
			<path d="M947.739,1133.089c0.109,0.258,0.207,0.516,0.355,0.754c0.239,0.384,0.917,0.469,1.133,0
				c0.114-0.247,0.199-0.493,0.274-0.754c0.165-0.573-0.293-1.157-0.881-1.157C948.085,1131.932,947.503,1132.529,947.739,1133.089
				L947.739,1133.089z"/>
		</g>
	</g>
	<g>
		<g>
			<path d="M980.195,1139.274c-0.895,0.648-1.573,1.122-2.145,2.098c-0.266,0.454-0.502,1.133-0.687,1.691
				c-0.59,1.78,0.08,3.897,1.371,5.188c0.665,0.661,1.45,1.118,2.353,1.371c1.475,0.406,2.769,0.097,4.109-0.538
				c1.057-0.501,1.893-1.328,2.457-2.351c1.188-2.153,0.912-4.843-0.852-6.607c-0.68-0.676-1.482-1.143-2.406-1.402
				C983.102,1138.369,981.325,1138.456,980.195,1139.274L980.195,1139.274z"/>
		</g>
	</g>
	<g>
		<g>
			<path d="M971.526,1160.533c0.158-0.084,0.317-0.168,0.475-0.252c-0.346,0.045-0.692,0.09-1.038,0.136
				c0.644,0.187,1.309,0.104,1.801-0.388c0.65-0.65,0.65-1.736,0-2.387c-1.281-1.281-3.421,0.177-2.742,1.834
				c0-0.239,0-0.477,0-0.716c-0.061,0.159-0.123,0.317-0.184,0.476C969.451,1160.243,970.718,1160.963,971.526,1160.533
				L971.526,1160.533z"/>
		</g>
	</g>
	<g>
		<g>
			<path d="M965.903,1139.515c-0.123,0.086-0.245,0.171-0.364,0.261c-0.469,0.358-0.571,1.061,0,1.4
				c0.12,0.071,0.241,0.136,0.364,0.201c0.713,0.379,1.622-0.089,1.622-0.931C967.526,1139.679,966.591,1139.036,965.903,1139.515
				L965.903,1139.515z"/>
		</g>
	</g>
	<g>
		<g>
			<path d="M922.292,1162.765c-0.122,0.724,0.384-0.656,0.131-0.246c0.441-0.523,0.542-0.668,0.304-0.435
				c0.571-0.404,0.71-0.521,0.416-0.349c0.6-0.162,1.2-0.325,1.8-0.487c-0.033,0.002-0.065,0.003-0.098,0.005
				c0.857,0.355,1.714,0.71,2.571,1.065c-0.043-0.049-0.087-0.098-0.13-0.147c-0.724-0.815-1.937-1.244-3.003-1.244
				c-1.21,0-2.102,0.498-3.003,1.244c-0.029,0.024-0.058,0.048-0.087,0.072c0.283-0.219,0.566-0.438,0.849-0.656
				c-0.16,0.118-0.321,0.214-0.504,0.292c0.315-0.133,0.629-0.266,0.944-0.398c-0.532,0.19-1.069,0.299-1.548,0.641
				c0.858-0.112,1.716-0.224,2.574-0.337c0.601,0.286,0.762,0.347,0.481,0.184c0.33,0.181,0.589,0.435,0.776,0.76
				c-0.256-0.359-0.489-0.72-0.824-1.016c0.214,0.808,0.427,1.615,0.641,2.423c0.124-0.628-0.202,0.293-0.01-0.067
				c0.131-0.202,0.093-0.161-0.114,0.123c0.089-0.109,0.196-0.199,0.304-0.288c-0.259,0.189-0.294,0.221-0.103,0.097
				c-0.286,0.103-0.326,0.12-0.118,0.05c-0.423,0.042-0.341,0.027,0.248-0.045c0.348-0.05-0.241-0.001-0.306-0.011
				c0.571,0.092,1.099,0.025,1.528-0.404c0.358-0.358,0.612-1.029,0.404-1.528c-0.532-1.271-1.529-1.953-2.935-1.921
				c-1.447,0.033-2.666,0.911-3.449,2.074c0.496-0.381,0.992-0.763,1.488-1.145c-0.748,0.311-1.607,0.631-1.972,1.442
				c-0.29,0.644-0.383,1.057-0.474,1.756c-0.098,0.752,0.262,1.801,0.663,2.421c-0.152-0.562-0.304-1.124-0.456-1.686
				c0.099,2.969,2.443,4.16,5.003,4.414c1.065,0.105,2.274-0.515,3.003-1.244c1.116-1.116,1.418-2.627,1.092-4.131
				c-0.009-0.041-0.018-0.082-0.026-0.122c0,0.644,0,1.289,0,1.933c-0.313,0.982-0.322,0.793-0.138,0.461
				c0.201-0.362,0.363-0.758,0.468-1.159c0.214-0.817,0.167-1.578-0.016-2.392c-0.32-1.425-1.77-2.426-3.187-2.426
				C924.123,1160.339,922.533,1161.336,922.292,1162.765L922.292,1162.765z"/>
		</g>
	</g>
	<g>
		<g>
			<path d="M922.003,1136.198c0.945,0,1.734-0.789,1.734-1.734s-0.789-1.734-1.734-1.734s-1.734,0.789-1.734,1.734
				S921.057,1136.198,922.003,1136.198L922.003,1136.198z"/>
		</g>
	</g>
	<g>
		<g>
			<path d="M908.576,1158.41c1.686,0,3.094-1.407,3.094-3.094c0-1.686-1.407-3.094-3.094-3.094s-3.094,1.407-3.094,3.094
				C905.482,1157.002,906.889,1158.41,908.576,1158.41L908.576,1158.41z"/>
		</g>
	</g>
	<g>
		<g>
			<path d="M933.035,1149.237c-0.127,0.015-0.253,0.031-0.38,0.046c-0.762,0.093-1.708,0.503-1.831,1.394
				c-0.003,0.021-0.006,0.041-0.009,0.062c0.262-0.341,0.524-0.681,0.786-1.022c-0.211,0.123-0.399,0.274-0.584,0.433
				c-0.778,0.671-0.448,1.864,0.305,2.369c0.083,0.068,0.176,0.118,0.278,0.151c-0.262-0.341-0.524-0.681-0.786-1.022
				c0.003,0.013,0.006,0.026,0.009,0.039c0.181,0.819,1.019,1.394,1.831,1.394c0.127,0,0.253,0,0.38,0
				c1.048,0,1.922-0.874,1.922-1.922C934.957,1150.207,934.078,1149.11,933.035,1149.237L933.035,1149.237z"/>
		</g>
	</g>
	<g>
		<g>
			<path d="M851.666,1149.844c0.461,0.434,0.951,1.064,1.609,1.164c0.617,0.094,1.068-0.151,1.297-0.737
				c0.247-0.63-0.055-1.374-0.204-2.001c-0.242-1.022-1.498-1.48-2.376-0.966C851.114,1147.819,850.902,1149.125,851.666,1149.844
				L851.666,1149.844z"/>
		</g>
	</g>
	<g>
		<g>
			<path d="M853.497,1160.81c1.028,0,1.028-1.594,0-1.594S852.469,1160.81,853.497,1160.81L853.497,1160.81z"/>
		</g>
	</g>
	<g>
		<g>
			<path d="M837.559,1173.491c-0.174,0.075-0.348,0.149-0.522,0.224c-0.681,0.292-1.21,1.137-1.398,1.818
				c-0.299,1.089,0.045,2.142,0.782,2.959c0.144,0.16,0.288,0.319,0.432,0.479c1.785,1.979,5.162,0.894,5.831-1.54
				c0.33-1.201-0.017-2.515-0.897-3.394c-0.435-0.432-0.948-0.731-1.54-0.897C839.255,1172.866,838.464,1173.103,837.559,1173.491
				L837.559,1173.491z"/>
		</g>
	</g>
	<g>
		<g>
			<path d="M825.069,1153.713c0.467,0.752,0.88,1.804,1.764,2.111c0.346,0.12,0.851-0.067,1.006-0.409
				c0.396-0.873-0.06-1.87-0.285-2.75c-0.184-0.718-0.968-1.143-1.672-0.949C825.051,1151.944,824.603,1152.963,825.069,1153.713
				L825.069,1153.713z"/>
		</g>
	</g>
	<g>
		<g>
			<path d="M790.656,1116.761c0.92,0,1.688-0.768,1.688-1.688c0-0.92-0.768-1.688-1.688-1.688c-0.92,0-1.688,0.768-1.688,1.688
				C788.969,1115.994,789.736,1116.761,790.656,1116.761L790.656,1116.761z"/>
		</g>
	</g>
	<g>
		<g>
			<path d="M798.455,1138.462c-0.684,0.179-1.334,0.573-1.814,1.09c-1.255,1.352-1.594,3.323-0.639,4.954
				c0.926,1.581,2.848,2.365,4.617,1.879c1.754-0.482,3.001-2.124,3.001-3.942c0-1.934-1.273-3.308-3.001-3.942
				C799.977,1138.266,799.116,1138.289,798.455,1138.462L798.455,1138.462z"/>
		</g>
	</g>
	<g>
		<g>
			<path d="M812.948,1187.271c2.69,0,2.69-4.172,0-4.172S810.258,1187.271,812.948,1187.271L812.948,1187.271z"/>
		</g>
	</g>
	<g>
		<g>
			<path d="M875.018,1099c1.806-33.487,6.745-67.272,16.535-99.436c5.046-16.579,11.749-32.522,19.429-48.039
				c3.974-8.028,8.431-15.781,13.024-23.467c2.355-3.94,4.512-7.779,6.529-11.9c1.003-2.05,2.073-4.069,3.135-6.088
				c1.089-2.072,0.993-5.118,1.619-7.358c1.403-5.02-4.963-13.085-10.304-10.075c-1.732,0.976-4.659,1.562-6.059,3.016
				c-1.514,1.572-3.012,3.157-4.498,4.756c-3.147,3.387-5.814,6.78-8.346,10.661c-4.883,7.484-9.219,15.328-13.3,23.273
				c-8.184,15.937-14.54,32.857-19.591,50.028c-10.605,36.046-13.593,73.468-7.235,110.566
				C866.484,1098.015,874.696,1104.969,875.018,1099L875.018,1099z"/>
		</g>
	</g>
	<g>
		<g>
			<path d="M862.263,1042.925c11.063-8.222,21.791-17.049,31.27-27.06c9.487-10.019,17.598-20.746,25.811-31.789
				c7.659-10.297,14.774-22.612,19.429-34.579c4.811-12.367,5.066-26.537-2.979-37.665c-18.584-25.706-50.168-14.52-74.045-3.896
				c-23.489,10.451-45.136,24.944-63.943,42.442c-18.778,17.47-34.571,38.348-46.523,61.023c-2.18,4.136,1.206,9.935,3.821,12.944
				c2.375,2.732,10.402,9.031,14.117,4.597c10.8-12.892,22.902-24.541,36.173-34.871c6.623-5.156,13.578-9.875,20.721-14.277
				c3.799-2.341,7.704-4.496,11.5-6.843c1.849-1.144,4.483-2.07,5.439-4.18c0.969-2.139,0.758-4.536,0.671-6.791
				c-0.122-3.178-2.042-6.466-4.965-7.928c-4.082-2.041-8.201-4.362-12.748-2.434c-4.269,1.81-8.349,3.965-12.358,6.286
				c-7.747,4.484-15.176,9.503-22.347,14.855c-14.351,10.712-27.318,23.231-38.79,36.967c5.979,5.847,11.959,11.694,17.938,17.54
				c23.614-44.961,63.049-81.03,109.832-100.769c10.9-4.599,23.125-9.767,35.142-9.582c1.784,0.027,4.272,0.195,5.719,0.851
				c1.362,0.617,1.491,0.824,0.672,0.02c1.661,1.631,0.974,1.177,0.616,0.444c2.379,4.884,0.966,11.368-0.039,16.427
				c-2.603,13.108-9.492,25.482-15.471,37.278c-6.349,12.528-14.138,24.553-22.835,35.574c-8.307,10.527-16.986,20.536-26.825,29.67
				C854.956,1039.321,859.742,1044.798,862.263,1042.925L862.263,1042.925z"/>
		</g>
	</g>
	<g>
		<g>
			<path d="M876.918,1048.529c4.184-4.57,8.649-8.824,13.465-12.726c5.17-4.189,10.253-9.13,16.167-12.256
				c5.574-2.945,10.585-7.178,16.067-10.37c5.825-3.392,11.835-6.341,18.067-8.909c5.793-2.387,11.697-4.493,17.753-6.108
				c1.199-0.32,2.456-0.597,3.697-0.688c0.846-0.063,4.34,0.895,1.799-0.284c-5.347-2.482-4.413-8.924-4.94-4.116
				c-0.188,1.715-0.918,3.345-1.54,4.935c-4.827,12.332-11.81,24.15-18.904,35.288c-14.329,22.498-32.563,42.44-53.144,59.357
				c-4.973,4.088-10.137,7.94-15.405,11.639c-5.646,3.965-12.007,8.576-19.187,8.657c-1.546,0.017-1.701-0.133-3.04-0.566
				c1.1,0.355-1.858-1.376-0.379-0.242c-2.101-1.611-0.472-0.387,0.019,0.281c0.133,0.181-1.969-3.443-1.233-1.892
				c-2.523-5.317-2.04-11.756-1.918-17.72c0.088-4.321,1.704-8.292,2.908-12.392c1.156-3.938,2.013-8.012,2.983-12.004
				c0.769-3.164-5.624-10.47-8.695-7.237c-4.63,4.874-8.432,9.828-11.364,15.897c-3.136,6.492-6.172,13.128-5.328,20.582
				c1.555,13.742,10.324,27.545,22.883,33.709c14.819,7.275,28.099-0.229,40.344-8.817c10.982-7.703,21.267-16.375,30.906-25.694
				c19.368-18.723,35.764-40.676,48.644-64.313c6.019-11.047,15.401-25.705,10.446-38.69c-3.006-7.876-9.451-14.488-17.64-16.852
				c-6.863-1.982-13.969,0.157-20.477,2.376c-14.921,5.087-28.893,13.109-41.133,22.997c-12.622,10.196-21.934,24.56-29.261,38.883
				C867.888,1044.357,874.119,1051.587,876.918,1048.529L876.918,1048.529z"/>
		</g>
	</g>
	<g>
		<g>
			<path d="M1027.157,932.652c-12.36,4.075-21.946,14.404-30.12,24.144c-8.405,10.016-15.522,21.096-21.184,32.872
				c-5.699,11.853-9.597,24.477-12.245,37.339c-2.531,12.289-5.262,28.103-0.817,40.196c5.409,14.719,20.578,24.074,36.039,20.305
				c13.304-3.244,24.416-16.868,33.196-26.557c19.232-21.223,34.421-45.874,47.773-71.104c0.804-1.52,1.596-3.047,2.388-4.573
				c-6.42-5.313-12.841-10.626-19.261-15.938c-5.173,11.407-8.454,23.535-10.152,35.934c-0.884,6.459-1.019,12.984-0.841,19.492
				c0.088,3.196,0.309,6.393,0.56,9.58c0.327,4.145,2.928,7.701,4.151,11.597c1.286,4.095,12.851,13.156,13.637,4.44
				c0.192-2.133,1.654-3.486,1.747-5.599c0.126-2.878-0.113-5.77-0.147-8.653c-0.069-5.855,0.396-11.698,1.025-17.515
				c1.254-11.591,4.475-22.734,9.28-33.339c4.032-8.899-13.892-26.299-19.261-15.938c-11.488,22.168-24.169,43.816-39.904,63.266
				c-7.858,9.713-16.501,18.963-25.998,27.093c-4.036,3.455-8.977,6.884-14.468,7.077c-1.434,0.05-3.289-0.333-3.988-0.715
				c1.256,0.687,2.757,2.412,3.058,3.509c-0.295-1.078-0.476-2.301-0.52-3.419c-0.859-22.243,6.071-45.112,16.002-64.763
				c5.056-10.005,11.205-19.422,18.37-28.037c7.646-9.193,17.166-16.711,24.017-26.506
				C1043.323,941.369,1032.755,930.806,1027.157,932.652L1027.157,932.652z"/>
		</g>
	</g>
	<g>
		<g>
			<path d="M1024.663,934.067c-2.904,1.348-5.839,2.036-8.406,4.033c-2.381,1.852-4.721,3.616-6.871,5.741
				c-4.18,4.13-8.692,7.908-13.38,11.446c-9.447,7.13-19.948,12.805-30.037,18.958c-2.344,1.43-4.96,3.606-7.827,3.795
				c0.365-0.024-2.865-0.421-2.185-0.094c1.637,0.787,3.838,3.368,4.244,5.127c-0.423-1.829-0.036-3.876,0.255-5.73
				c0.068-0.431,0.556-2.413-0.004-0.235c0.219-0.851,0.5-1.685,0.784-2.516c2.215-6.466,6.017-12.404,9.869-17.997
				c9.628-13.978,22.201-27.102,34.497-39.231c10.425-10.284,21.301-20.418,33.135-29.081c1.534-1.123,3.104-2.203,4.746-3.163
				c0.639-0.373-1.946,0.844,0.049,0.062c0.186-0.073,0.38-0.128,0.571-0.184c-1.594,0.471-4.723-0.215-6.528-1.363
				c-1.655-1.378-3.31-2.756-4.965-4.134c-3.102-9.619-4.441-12.115-4.016-7.488c0.067,1.287,0.14,2.574,0.222,3.861
				c0.145,2.385,0.343,4.768,0.69,7.132c0.786,5.344,2.458,10.554,4.247,15.629c3.686,10.456,9.791,19.377,18.027,26.773
				c3.054,2.743,5.37,0.003,3.681-3.2c-2.978-5.648-5.067-11.599-6.441-17.826c-1.235-5.597-0.783-11.366-0.748-17.051
				c0.043-6.974,0.571-11.83-4.162-17.704c-3.211-3.985-8.067-6.611-13.182-5.707c-3.513,0.621-7.525,4.178-10.32,6.258
				c-5.316,3.956-10.367,8.276-15.339,12.651c-13.287,11.693-25.972,24.223-37.56,37.608c-9.929,11.469-20.854,24.405-25.773,39.006
				c-3.657,10.856-1.965,21.224,4.909,30.412c4.423,5.911,12.545,9.445,19.781,9.535c7.012,0.087,12.594-4.729,18.1-8.43
				c9.221-6.198,18.264-12.681,26.702-19.927c4.134-3.55,7.989-7.406,11.658-11.431c2.087-2.289,3.798-4.781,5.33-7.468
				c2.04-3.579,2.45-7.076,3.416-11.017C1032.526,938.287,1027.722,932.647,1024.663,934.067L1024.663,934.067z"/>
		</g>
	</g>
	<g>
		<g>
			<path d="M1070.554,1050.622c0.165-5.56,0.472-11.08,1.605-16.538c1.281-6.175,1.597-12.48,2.501-18.733
				c1.794-12.397,4.434-24.545,8.386-36.437c8.662-26.063,22.762-49.681,41.785-69.499c-5.985-5.852-11.97-11.704-17.955-17.556
				c-29.137,61.969-14.438,140.815,29.168,192.258c2.735,3.226,7.802,6.951,12.35,5.615c4.335-1.273,4.171-6.791,2.686-10.127
				c-12.579-28.256-15.113-60.463-7.632-90.481c3.88-15.57,10.458-30.684,19.417-44.004c4.443-6.605,10.154-11.766,15.73-17.341
				c4.322-4.321,11.262-8.377,17.434-7.893c2.213,0.173,3.149-1.829,2.809-3.747c-0.521-2.944-3.015-5.779-5.842-6.721
				c-4.057-1.351-8.353-2.26-12.557-3.028c-3.675-0.671-8.71,1.257-12.208,2.254c-8.464,2.413-15.041,8.352-20.572,14.982
				c-11.283,13.524-18.496,31.162-23.076,47.988c-9.6,35.271-6.868,73.512,8.015,106.941c5.012-1.504,10.024-3.008,15.036-4.512
				c-8.625-10.176-16.206-22.569-21.798-35.517c-5.96-13.799-9.765-28.296-11.905-43.155c-4.268-29.635-0.31-60.368,12.135-87.631
				c1.974-4.325-1.06-9.775-3.825-12.956c-2.548-2.931-10.162-8.834-14.13-4.601c-19.727,21.047-34.681,45.998-43.5,73.478
				c-4.116,12.825-6.901,26.436-7.896,39.867c-0.501,6.759-1.01,13.868-0.173,20.609c0.903,7.269,2.252,14.606,3.586,21.81
				c0.494,2.665,2.453,5.119,4.781,6.444C1066.873,1053.507,1070.46,1053.785,1070.554,1050.622L1070.554,1050.622z"/>
		</g>
	</g>
	<g>
		<g>
			<path d="M1150.061,1010.831c0.894-3.731,0.944-8.433,2.472-11.902c0.967-2.195,1.225-4.762,1.856-7.074
				c0.673-2.466,1.867-4.627,2.682-7.033c3.429-10.125,7.784-20.251,13.142-29.506c4.818-8.322,10.876-15.995,18.545-21.858
				c3.081-2.356,9.383-4.066,10.999-7.631c2.488-5.492,0.346-11.796-5.69-15.23c-4.854-2.761-9.681-3.393-14.65-0.769
				c-4.262,2.251-8.06,4.956-11.595,8.233c-7.655,7.097-13.453,16.203-18.002,25.522c-9.433,19.325-13.51,45.018-5.228,65.467
				C1145.302,1010.804,1149.243,1014.247,1150.061,1010.831L1150.061,1010.831z"/>
		</g>
	</g>
	<g>
		<g>
			<path d="M869.398,1149.27c31.105-13.737,57.935-35.704,80.746-60.659c-3.182-1.852-6.364-3.705-9.546-5.557
				c-2.947,16.843-0.267,33.831,6.482,49.43c1.347,3.113,5.452,3.371,8.064,2.115c36.394-17.499,70.992-39.484,99.996-67.758
				c-3.086-0.398-6.171-0.795-9.257-1.193c12.482,25.59,32.972,52.614,61.526,60.826c4.985,1.434,9.244-4.22,6.646-8.645
				c-12.094-20.604-18.502-43.816-18.662-67.708c-3.848,0.521-7.696,1.042-11.545,1.562c15.451,40.659,48.883,72.756,90.273,86.27
				c5.824,1.902,9.533-5.709,5.706-9.802c-6.271-6.704-10.039-14.774-11.865-23.727c-1.726-8.464-0.427-17.906,0.403-26.423
				c0.393-4.037-5.08-4.663-6.988-1.893c-12.644,18.358-3.904,45.298,10.157,60.336c1.902-3.267,3.804-6.534,5.706-9.801
				c-37.207-12.157-68.144-41.451-82.057-78.085c-2.258-5.946-11.59-5.443-11.545,1.563c0.169,25.915,7.139,51.295,20.253,73.649
				c2.215-2.882,4.431-5.764,6.646-8.645c-25.553-7.354-43.391-32.686-54.477-55.425c-1.701-3.489-6.697-3.688-9.257-1.193
				c-28.369,27.644-62.133,48.646-97.61,65.915c2.688,0.705,5.376,1.41,8.064,2.115c-5.883-13.42-7.06-27.538-5.442-41.962
				c0.54-4.81-6.73-7.781-9.75-4.039c-20.995,26.021-46.965,46.864-74.703,65.255
				C865.156,1147.252,867.053,1150.306,869.398,1149.27L869.398,1149.27z"/>
		</g>
	</g>
	<g>
		<g>
			<path d="M909.014,888.55c7.694-1.699,15.32-3.687,23.015-5.377c8.301-1.822,16.747-3.594,24.894-5.968
				c-2.113-2.113-4.226-4.226-6.339-6.339c-3.341,14.696-6.549,29.426-9.673,44.17c-1.061,5.006,5.66,10.34,9.481,5.519
				c31.795-40.118,77.055-67.846,127.334-77.604c-2.222-2.89-4.444-5.781-6.666-8.671c-15.734,28.249-16.946,62.401-3.81,91.852
				c2.134,4.785,9.606,3.199,10.771-1.408c7.756-30.674,37.593-51.579,66.014-61.509c-2.41-1.368-4.82-2.737-7.23-4.105
				c4.656,24.948-6.982,49.172-13.056,72.832c-1.879,7.318,8.355,9.724,11.029,3.041c4.545-11.358,12.979-20.799,23.601-26.789
				c13.031-7.349,26.605-5.287,40.843-5.091c3.427,0.047,4.324-4.414,1.668-6.158c-13.921-9.143-32.69-5.919-46.875,1.122
				c-14.01,6.953-24.375,19.618-30.266,33.876c3.676,1.014,7.353,2.027,11.029,3.041c7.006-26.072,18.443-51.448,13.361-78.997
				c-0.555-3.009-4.391-5.09-7.23-4.105c-32.298,11.208-65.454,34.94-74.254,69.711c3.59-0.469,7.181-0.938,10.771-1.408
				c-11.348-25.457-9.697-55.676,3.827-79.945c2.654-4.762-1.663-9.641-6.666-8.671c-51.887,10.058-99.757,39.218-132.218,80.966
				c3.16,1.84,6.32,3.679,9.481,5.519c2.991-14.794,5.899-29.609,8.671-44.446c0.671-3.593-2.318-7.681-6.339-6.339
				c-7.521,2.512-14.724,5.764-22.12,8.623c-7.998,3.091-16.008,6.16-23.946,9.405C906.143,886.102,906.838,889.03,909.014,888.55
				L909.014,888.55z"/>
		</g>
	</g>
	<g>
		<g>
			<path d="M822.214,1049.124c1.62-5.738,3.49-11.372,5.26-17.062c0.786-2.527,1.614-5.04,2.415-7.562
				c0.821-2.584,1.342-6.803,3.165-8.876c4.343-4.938-3.125-12.19-7.159-7.159c-3.739,4.662-6.516,10.063-10.084,14.88
				c-3.693,4.987-8.003,9.547-12.316,13.994c-4.296,4.429-8.748,8.703-13.206,12.968c-2.105,2.014-4.258,4.116-7.06,5.106
				c-1.912,0.676-5.723-0.465-5.278-2.976c0.35-1.979-1.827-4.566-3.891-2.991c-5.513,4.208-3.561,12.166,1.567,15.869
				c7.878,5.691,17.207-1.33,22.916-6.754c6.91-6.567,13.694-13.271,19.932-20.486c6.071-7.023,13.421-15.558,15.882-24.684
				c-3.254,0-6.509,0-9.763,0c0.558,2.268-0.465,5.112-0.879,7.35c-0.604,3.265-1.095,6.552-1.689,9.819
				c-1.069,5.882-2.022,11.761-3.246,17.617C818.312,1050.411,821.585,1051.35,822.214,1049.124L822.214,1049.124z"/>
		</g>
	</g>
	<g>
		<g>
			<path d="M1166.99,1023.123c-0.432,1.222-0.86,2.432-1.355,3.63c-1.487,3.598,5.396,5.262,5.617,0.76
				c0.783-15.953,4.484-35.096,14.896-47.837c-2.611-2.015-5.223-4.03-7.834-6.045c-4.153,6.398-5.471,15.759-6.299,23.212
				c-0.923,8.31,0.673,16.813,5.092,23.938c8.021,12.936,25.535,16.843,39.395,12.656c15.101-4.562,25.616-18.318,30.677-32.648
				c2.857-8.091,2.479-17.951-3.704-24.321c-4.601-4.741-11.826-6.233-17.747-3.431c-1.864,0.882-0.972,4.025,1.053,3.887
				c6.388-0.436,9.033,4.439,10.386,9.839c1.485,5.924-1.888,13.064-4.635,18.132c-4.899,9.039-13.723,17.139-24.281,18.361
				c-9.542,1.104-19.643-3.26-23.294-12.535c-2.136-5.425-1.768-11.536-0.941-17.185c0.852-5.822,3.374-11.521,3.593-17.388
				c0.182-4.861-7.048-6.952-9.295-2.518c-4.332,8.551-8.521,16.59-10.996,25.937c-2.406,9.088-2.926,18.644-1.785,27.945
				c1.776-0.481,3.552-0.962,5.328-1.443c-0.66-1.051-1.256-2.125-1.858-3.21C1168.511,1021.974,1167.293,1022.266,1166.99,1023.123
				L1166.99,1023.123z"/>
		</g>
	</g>
	<g>
		<g>
			<path d="M1223.056,1045.394c-4.09-7.151-7.295-14.647-8.283-22.892c-1.048-8.749,1.747-16.457,3.126-24.897
				c0.294-1.797-1.678-3.194-3.134-1.824c-6.926,6.515-7.917,17.829-6.895,26.722c1.113,9.684,5.448,18.897,13.261,24.816
				C1222.313,1048.213,1223.705,1046.529,1223.056,1045.394L1223.056,1045.394z"/>
		</g>
	</g>
	<g>
		<g>
			<path d="M807.838,1064.004c-11.185-9.131-11.559-23.229-7.759-35.986c0.335-1.126-1.06-2.374-2.1-1.615
				c-14.628,10.68-6.281,34.348,8.354,40.186C807.753,1067.156,809.011,1064.962,807.838,1064.004L807.838,1064.004z"/>
		</g>
	</g>
	<g>
		<g>
			<path d="M1018.006,1015.916c1.217-10.841,8.307-16.393,16.061-22.932c1.132-0.955-0.11-2.505-1.323-2.272
				c-10.992,2.113-17.03,15.104-17.645,25.204C1014.984,1017.816,1017.802,1017.736,1018.006,1015.916L1018.006,1015.916z"/>
		</g>
	</g>
	<g>
		<g>
			<path d="M1028.359,1010.687c-4.669-7.344-4.711-16.664-5.997-24.997c-0.163-1.053-1.525-0.93-2.013-0.263
				c-6.733,9.193-1.604,20.167,5.434,27.248C1027.083,1013.984,1029.372,1012.281,1028.359,1010.687L1028.359,1010.687z"/>
		</g>
	</g>
	<g>
		<g>
			<path d="M953.156,908.686c2.499-5.257,5.166-10.416,7.459-15.769c2.169-5.062,5.319-10.35,4.782-16.001
				c-0.13-1.37-1.572-2.012-2.641-1.094c-3.861,3.315-5.205,8.325-6.952,12.955c-2.291,6.071-4.195,12.238-6.247,18.392
				C948.856,909.274,952.196,910.707,953.156,908.686L953.156,908.686z"/>
		</g>
	</g>
	<g>
		<g>
			<path d="M1072.582,918.049c1.731-6.689,3.131-13.442,4.904-20.118c1.589-5.987,5.017-11.802,3.8-18.13
				c-0.263-1.366-1.85-1.688-2.927-1.191c-6.29,2.904-8.18,10.727-9.558,16.927c-1.695,7.626-1.567,15.146,1.069,22.513
				C1070.318,919.3,1072.213,919.477,1072.582,918.049L1072.582,918.049z"/>
		</g>
	</g>
	<g>
		<g>
			<path d="M1139.997,917.098c4.336-6.407,8.643-12.712,12.467-19.449c3.169-5.583,7.584-12.246,7.946-18.8
				c0.077-1.398-1.799-2.635-2.998-1.72c-5.238,3.995-8.24,11.135-11.112,16.918c-3.535,7.117-6.426,14.391-9.388,21.752
				C1136.159,917.669,1138.989,918.587,1139.997,917.098L1139.997,917.098z"/>
		</g>
	</g>
	<g>
		<g>
			<path d="M1117.712,1106.532c-6.021-5.628-10.794-12.263-14.689-19.51c-3.328-6.191-4.154-14.745-8.71-20.09
				c-0.572-0.671-1.598-0.238-1.841,0.486c-2.369,7.042,2.91,16.139,6.305,22.086c4.332,7.589,10.439,13.815,17.316,19.126
				C1117.306,1109.567,1118.802,1107.552,1117.712,1106.532L1117.712,1106.532z"/>
		</g>
	</g>
	<g>
		<g>
			<path d="M1047.998,1059.119c-3.818,4.682-3.992,12.655-4.656,18.504c-0.673,5.93-2.338,13.519,1.603,18.565
				c0.546,0.699,1.901,0.667,2.453,0c3.696-4.466,2.845-11.162,3.177-16.643c0.194-3.199,0.431-6.399,0.685-9.594
				c0.265-3.334,0.957-6.847-0.207-10.025C1050.63,1058.769,1048.944,1057.958,1047.998,1059.119L1047.998,1059.119z"/>
		</g>
	</g>
	<g>
		<g>
			<path d="M946.345,1081.299c-4.781,5.131-7.587,12.682-11.189,18.693c-3.71,6.192-8.964,11.858-11.374,18.7
				c-0.542,1.54,1.417,2.996,2.754,2.117c6.248-4.107,10.09-11.484,13.773-17.805c3.5-6.007,8.108-13.587,8.516-20.678
				C948.898,1081.064,947.185,1080.397,946.345,1081.299L946.345,1081.299z"/>
		</g>
	</g>
	<g>
		<g>
			<path d="M1000.163,867.676c-1.268-4.607-2.108-9.818-5.587-13.346c-0.839-0.851-2.052-0.149-2.161,0.895
				c-0.513,4.93,2.188,9.607,4.064,14.004C997.393,871.373,1000.754,869.821,1000.163,867.676L1000.163,867.676z"/>
		</g>
	</g>
	<g>
		<g>
			<path d="M1007.086,864.292c0.549-6.3,1.378-12.398,1.37-18.747c-0.005-4.455,0.353-10.195-4.013-12.786
				c-0.523-0.311-1.278-0.345-1.798,0c-4.223,2.799-3.689,8.303-3.484,12.786c0.292,6.371,1.408,12.453,2.253,18.747
				C1001.894,867.865,1006.762,868.012,1007.086,864.292L1007.086,864.292z"/>
		</g>
	</g>
	<g>
		<g>
			<path d="M1006.336,866.679c3.448-3.808,6.718-7.478,9.561-11.783c2.598-3.933,6.397-8.225,5.548-13.175
				c-0.192-1.12-1.553-1.738-2.566-1.457c-4.262,1.184-6.369,5.738-8.514,9.301c-2.97,4.934-5.177,9.88-7.36,15.177
				C1002.235,866.614,1005.059,868.09,1006.336,866.679L1006.336,866.679z"/>
		</g>
	</g>
	<g>
		<g>
			<path d="M1107.189,875.823c-0.572-2.81-1.143-5.619-1.715-8.429c-0.429-2.11-1.046-4.552-3.003-5.669
				c-0.616-0.352-1.399-0.143-1.764,0.462c-1.216,2.017-0.384,4.328,0.163,6.476c0.702,2.757,1.747,5.471,2.612,8.181
				C1104.24,879.219,1107.681,878.243,1107.189,875.823L1107.189,875.823z"/>
		</g>
	</g>
	<g>
		<g>
			<path d="M1111.1,876.016c2.725-7.26,5.932-14.209,8.053-21.708c1.737-6.14,6.293-14.998,1.752-20.592
				c-1.053-1.297-2.868-1.115-4.204-0.542c-5.918,2.539-6.109,12.95-7.286,18.45c-1.686,7.877-2.128,15.796-3.149,23.738
				C1105.888,878.305,1110.199,878.416,1111.1,876.016L1111.1,876.016z"/>
		</g>
	</g>
	<g>
		<g>
			<path d="M1116.568,871.723c2.146-4.401,5.117-8.495,8.304-12.208c3.144-3.662,7.081-6.641,9.876-10.571
				c0.879-1.236-0.561-2.597-1.8-2.341c-10.608,2.191-16.926,14.32-19.679,23.729
				C1112.704,872.269,1115.66,873.586,1116.568,871.723L1116.568,871.723z"/>
		</g>
	</g>
	<g>
		<g>
			<path d="M1010.865,1110.965c0.187-2.734,0.397-5.468,0.549-8.205c0.121-2.174-0.155-5.032-2.101-6.282
				c-0.385-0.247-0.964-0.247-1.349,0c-1.811,1.163-1.902,3.247-2.068,5.256c-0.249,3.009,0.31,6.223,0.516,9.231
				C1006.609,1113.833,1010.669,1113.833,1010.865,1110.965L1010.865,1110.965z"/>
		</g>
	</g>
	<g>
		<g>
			<path d="M1006.942,1094.57c2.301,5.593,4.919,10.837,8.202,15.935c2.67,4.147,5.973,12.133,11.862,11.603
				c0.964-0.087,2.093-0.479,2.53-1.451c2.274-5.069-1.681-8.904-4.708-12.774c-4.378-5.598-8.834-10.769-14.164-15.479
				C1009.168,1091.083,1006.02,1092.331,1006.942,1094.57L1006.942,1094.57z"/>
		</g>
	</g>
	<g>
		<g>
			<path d="M1028.638,1096.813c-3.175-0.353-6.588-1.385-9.232-3.206c-2.52-1.735-4.978-3.437-8.128-2.937
				c-0.988,0.157-1.878,1.369-1.789,2.35c0.704,7.836,13.286,8.433,19.149,7.964
				C1031.354,1100.768,1031.291,1097.108,1028.638,1096.813L1028.638,1096.813z"/>
		</g>
	</g>
</g>
</svg>
