<svg xmlns="http://www.w3.org/2000/svg" width="531.863" height="496.536" viewBox="0 0 531.863 496.536">
  <g id="benjam_signature_2020" data-name="benjam signature 2020" transform="translate(-750.585 -736.087)">
    <g id="Group_2" data-name="Group 2">
      <g id="Group_1" data-name="Group 1">
        <path id="Path_1" data-name="Path 1" d="M852.435,883.9c-6.73-6.855-10.7-14.78-15.917-22.634a1.271,1.271,0,0,0-2.313.975c1.915,9.277,9.246,17.7,16.274,23.614,1.346,1.133,3.224-.664,1.956-1.955Z" fill="#fff"/>
      </g>
    </g>
    <g id="Group_4" data-name="Group 4">
      <g id="Group_3" data-name="Group 3">
        <path id="Path_2" data-name="Path 2" d="M898.526,863.6c-6.294-20.508-15.289-42.043-28.933-58.845-1.182-1.456-3.224.4-2.466,1.9,4.86,9.663,10.629,18.879,15.545,28.529,4.884,9.587,9.476,19.427,13.67,29.334.532,1.26,2.575.354,2.184-.921Z" fill="#fff"/>
      </g>
    </g>
    <g id="Group_6" data-name="Group 6">
      <g id="Group_5" data-name="Group 5">
        <path id="Path_3" data-name="Path 3" d="M958.092,847.719c-3.1-8.552-4.966-17.165-6.977-26.006a.706.706,0,0,0-1.381.187c.329,9.106,3.225,18.166,7.116,26.343.33.693,1.5.2,1.242-.524Z" fill="#fff"/>
      </g>
    </g>
    <g id="Group_8" data-name="Group 8">
      <g id="Group_7" data-name="Group 7">
        <path id="Path_4" data-name="Path 4" d="M997.948,821.329c-2.12-12.513-4.368-24.977-7.044-37.388-2.644-12.26-5.246-24.9-9.566-36.693-.443-1.208-2.521-1.133-2.394.324,1.047,12,3.836,24.068,6.528,35.8,2.981,12.985,6.341,25.838,9.9,38.671.468,1.691,2.858.957,2.576-.71Z" fill="#fff"/>
      </g>
    </g>
    <g id="Group_10" data-name="Group 10">
      <g id="Group_9" data-name="Group 9">
        <path id="Path_5" data-name="Path 5" d="M1047.638,819.689c.369-7.447.989-14.542.437-22.009-.071-.961-1.645-1.323-1.8-.243-1.044,7.5-.914,14.708-1.032,22.252a1.2,1.2,0,0,0,2.391,0Z" fill="#fff"/>
      </g>
    </g>
    <g id="Group_12" data-name="Group 12">
      <g id="Group_11" data-name="Group 11">
        <path id="Path_6" data-name="Path 6" d="M1091.649,815.374c2.913-5.171,4.692-11.263,6.459-16.913,2.145-6.861,4.325-13.712,6.373-20.6s3.86-13.841,5.778-20.766c1.763-6.366,3.865-12.9,4.714-19.46.2-1.554-2.268-2.141-2.926-.793-5.668,11.616-9.037,25.19-12.766,37.553-2.076,6.88-4.044,13.79-6.022,20.7-1.806,6.309-3.948,12.958-4.4,19.526a1.509,1.509,0,0,0,2.794.757Z" fill="#fff"/>
      </g>
    </g>
    <g id="Group_14" data-name="Group 14">
      <g id="Group_13" data-name="Group 13">
        <path id="Path_7" data-name="Path 7" d="M1133.325,824.407c4.017-4.534,6.568-9.606,6.944-15.713.047-.762-1.08-.863-1.289-.174a44.006,44.006,0,0,1-7.08,14.462c-.781,1,.546,2.418,1.425,1.425Z" fill="#fff"/>
      </g>
    </g>
    <g id="Group_16" data-name="Group 16">
      <g id="Group_15" data-name="Group 15">
        <path id="Path_8" data-name="Path 8" d="M1173.267,859.888c9.39-10.377,20.654-19.946,31.71-28.512,5.855-4.536,11.9-8.841,18.129-12.845,5.934-3.812,12.553-6.9,18.244-11.016a1.649,1.649,0,0,0-1.264-3c-6.877,1.743-13.665,5.72-19.77,9.242a157.162,157.162,0,0,0-18.288,12.364,126.96,126.96,0,0,0-16.979,15.428c-4.853,5.483-9,11.258-13.291,17.173-.646.889.784,1.966,1.509,1.165Z" fill="#fff"/>
      </g>
    </g>
    <g id="Group_18" data-name="Group 18">
      <g id="Group_17" data-name="Group 17">
        <path id="Path_9" data-name="Path 9" d="M1239.2,875.378c6.008.85,12.523-.654,18.622-.654a150.641,150.641,0,0,1,23.522,2.246.892.892,0,0,0,.474-1.718,72.652,72.652,0,0,0-22.145-4.31c-6.363-.354-14.985-.377-20.68,2.851-.6.339-.565,1.476.207,1.585Z" fill="#fff"/>
      </g>
    </g>
    <g id="Group_20" data-name="Group 20">
      <g id="Group_19" data-name="Group 19">
        <path id="Path_10" data-name="Path 10" d="M820.588,892.906a10.291,10.291,0,0,0-1.054-.681.758.758,0,0,0-1.1.448,13,13,0,0,0-.1,1.528,1.5,1.5,0,1,0,2.258-1.295Z" fill="#fff"/>
      </g>
    </g>
    <g id="Group_22" data-name="Group 22">
      <g id="Group_21" data-name="Group 21">
        <path id="Path_11" data-name="Path 11" d="M803.77,870.053a3.82,3.82,0,1,0-3.82-3.82,3.855,3.855,0,0,0,3.82,3.82Z" fill="#fff"/>
      </g>
    </g>
    <g id="Group_24" data-name="Group 24">
      <g id="Group_23" data-name="Group 23">
        <path id="Path_12" data-name="Path 12" d="M843.77,895.147a.915.915,0,0,0,0-1.828.915.915,0,0,0,0,1.828Z" fill="#fff"/>
      </g>
    </g>
    <g id="Group_26" data-name="Group 26">
      <g id="Group_25" data-name="Group 25">
        <path id="Path_13" data-name="Path 13" d="M860.437,835.9a3,3,0,1,0-3-3,3.028,3.028,0,0,0,3,3Z" fill="#fff"/>
      </g>
    </g>
    <g id="Group_28" data-name="Group 28">
      <g id="Group_27" data-name="Group 27">
        <path id="Path_14" data-name="Path 14" d="M875.1,873.16a1.6,1.6,0,0,0,0-3.188,1.595,1.595,0,0,0,0,3.188Z" fill="#fff"/>
      </g>
    </g>
    <g id="Group_30" data-name="Group 30">
      <g id="Group_29" data-name="Group 29">
        <path id="Path_15" data-name="Path 15" d="M919.5,818.538l.392.077c2.714.533.573-3.8-.65-1.6a.953.953,0,0,0,0,1.1c1.223,2.2,3.364-2.13.65-1.6l-.392.077a1.015,1.015,0,0,0,0,1.944Z" fill="#fff"/>
      </g>
    </g>
    <g id="Group_32" data-name="Group 32">
      <g id="Group_31" data-name="Group 31">
        <path id="Path_16" data-name="Path 16" d="M946.908,854.428a2.671,2.671,0,0,0,1,.716,1.064,1.064,0,0,0,1.443-1.443,2.641,2.641,0,0,0-.716-1,1.219,1.219,0,0,0-1.723,1.723Z" fill="#fff"/>
      </g>
    </g>
    <g id="Group_34" data-name="Group 34">
      <g id="Group_33" data-name="Group 33">
        <path id="Path_17" data-name="Path 17" d="M903.567,835.845l.045-.188a2.6,2.6,0,0,0-1.2-2.938l-.187-.08.8.8a2.9,2.9,0,0,0-.691-.909,1.787,1.787,0,0,0-2.471,0,2.913,2.913,0,0,0-.691.909l.8-.8-.187.08a2.6,2.6,0,0,0-1.2,2.938l.045.188a2.572,2.572,0,0,0,4.927,0Z" fill="#fff"/>
      </g>
    </g>
    <g id="Group_36" data-name="Group 36">
      <g id="Group_35" data-name="Group 35">
        <path id="Path_18" data-name="Path 18" d="M920.239,799.69a3.748,3.748,0,1,0-3.748-3.748,3.783,3.783,0,0,0,3.748,3.748Z" fill="#fff"/>
      </g>
    </g>
    <g id="Group_38" data-name="Group 38">
      <g id="Group_37" data-name="Group 37">
        <path id="Path_19" data-name="Path 19" d="M986.8,830.471a2.022,2.022,0,0,0-1.187-.479.724.724,0,0,0-.7.7,2.022,2.022,0,0,0,.479,1.187,1.032,1.032,0,1,0,1.411-1.411Z" fill="#fff"/>
      </g>
    </g>
    <g id="Group_40" data-name="Group 40">
      <g id="Group_39" data-name="Group 39">
        <path id="Path_20" data-name="Path 20" d="M953.813,805.447l.37-.222a1.161,1.161,0,0,0,0-1.984l-.37-.222a1.406,1.406,0,1,0,0,2.428Z" fill="#fff"/>
      </g>
    </g>
    <g id="Group_42" data-name="Group 42">
      <g id="Group_41" data-name="Group 41">
        <path id="Path_21" data-name="Path 21" d="M1039.613,786.294a4.266,4.266,0,1,0-4.266-4.266,4.306,4.306,0,0,0,4.266,4.266Z" fill="#fff"/>
      </g>
    </g>
    <g id="Group_44" data-name="Group 44">
      <g id="Group_43" data-name="Group 43">
        <path id="Path_22" data-name="Path 22" d="M1036.315,818.658a2.357,2.357,0,0,0-.676-3.158l.686.892-.151-.49c-.243-.79-1.456-1.317-2.055-.542l-.289.374.659-.384a1.7,1.7,0,0,0-1.011.7,2.25,2.25,0,0,0-.552,2.171,1.858,1.858,0,0,0,1.3,1.295,1.9,1.9,0,0,0,2.094-.853Z" fill="#fff"/>
      </g>
    </g>
    <g id="Group_46" data-name="Group 46">
      <g id="Group_45" data-name="Group 45">
        <path id="Path_23" data-name="Path 23" d="M1021.111,794.512q-.34-.308.21.581l-.189.7a1.189,1.189,0,0,0,.176-.392c-.032.117.119-.934.01-.257a1.654,1.654,0,0,0-.457-1.57l.407.983q-.016-.225-.036.1c-.069.182-.078.214-.026.1a1.185,1.185,0,0,0-.7-1.707,1.593,1.593,0,0,0-1.615.528l.613-.357a1.662,1.662,0,0,0-.91,2.455,1.8,1.8,0,0,0,1.995.8,1.181,1.181,0,0,0,.517-1.96Z" fill="#fff"/>
      </g>
    </g>
    <g id="Group_48" data-name="Group 48">
      <g id="Group_47" data-name="Group 47">
        <path id="Path_24" data-name="Path 24" d="M1082.279,816.955a1.6,1.6,0,0,0,0-3.188,1.595,1.595,0,0,0,0,3.188Z" fill="#fff"/>
      </g>
    </g>
    <g id="Group_50" data-name="Group 50">
      <g id="Group_49" data-name="Group 49">
        <path id="Path_25" data-name="Path 25" d="M1060.474,792.852a4.348,4.348,0,1,0-4.348-4.348,4.389,4.389,0,0,0,4.348,4.348Z" fill="#fff"/>
      </g>
    </g>
    <g id="Group_52" data-name="Group 52">
      <g id="Group_51" data-name="Group 51">
        <path id="Path_26" data-name="Path 26" d="M1072.279,775.95a1.922,1.922,0,1,0-1.922-1.922,1.94,1.94,0,0,0,1.922,1.922Z" fill="#fff"/>
      </g>
    </g>
    <g id="Group_54" data-name="Group 54">
      <g id="Group_53" data-name="Group 53">
        <path id="Path_27" data-name="Path 27" d="M1135.161,837.118a5.307,5.307,0,0,0-.315-.755.661.661,0,0,0-1.133,0,5.408,5.408,0,0,0-.315.755.914.914,0,1,0,1.763,0Z" fill="#fff"/>
      </g>
    </g>
    <g id="Group_56" data-name="Group 56">
      <g id="Group_55" data-name="Group 55">
        <path id="Path_28" data-name="Path 28" d="M1103.411,828.89a5.669,5.669,0,0,0,2.249-2.248q.324-.729.624-1.469a6.017,6.017,0,0,0-.015-2.957,4.973,4.973,0,0,0-3.63-3.63q-.765-.106-1.53-.206a6.25,6.25,0,0,0-5.144,3.065,5.443,5.443,0,0,0,7.446,7.445Z" fill="#fff"/>
      </g>
    </g>
    <g id="Group_58" data-name="Group 58">
      <g id="Group_57" data-name="Group 57">
        <path id="Path_29" data-name="Path 29" d="M1113.033,808.37l-.5.229,1.038-.136a1.687,1.687,0,1,0,.941.941q-.068.519-.136,1.038l.229-.5a1.159,1.159,0,0,0-1.572-1.572Z" fill="#fff"/>
      </g>
    </g>
    <g id="Group_60" data-name="Group 60">
      <g id="Group_59" data-name="Group 59">
        <path id="Path_30" data-name="Path 30" d="M1117.49,829.626c.123-.075.245-.15.365-.231a.822.822,0,0,0,0-1.4c-.12-.081-.242-.156-.365-.231a1.078,1.078,0,1,0,0,1.862Z" fill="#fff"/>
      </g>
    </g>
    <g id="Group_62" data-name="Group 62">
      <g id="Group_61" data-name="Group 61">
        <path id="Path_31" data-name="Path 31" d="M1162.432,808.9q.125-.486-.222.453.253-.427-.333.405c.315-.37-.881.523-.225.207l-1.8.487h.1l-2.571-1.065.147.181a4.178,4.178,0,0,0,5.146.664,2.465,2.465,0,0,1,.506-.29l-.955.4a2.208,2.208,0,0,1,.439-.112l-1.012.136a4.427,4.427,0,0,0,2.215-.65H1160.5c.633.28-.51-.517-.173-.17q-.486-.7-.276-.295a3.438,3.438,0,0,0,.72.9q-.32-1.212-.64-2.423c-.1.38.317-.514-.026.044q.344-.418.1-.142c-.331.359.407-.28.011.008a1.868,1.868,0,0,1-.233.137q.429-.168.116-.075.45-.06.129-.028c-.14.012-.43-.052-.049.032a1.586,1.586,0,0,0-1.932,1.932,2.95,2.95,0,0,0,2.918,2.006,4.385,4.385,0,0,0,3.521-1.993l-1.488,1.144a3.372,3.372,0,0,0,2.494-3.193,4.384,4.384,0,0,0-.618-2.45l.456,1.686a4.5,4.5,0,0,0-3.861-4.363,4.573,4.573,0,0,0-3.272.428,4.15,4.15,0,0,0-2.1,3.667c.043-.21.085-.419.128-.629l.917-1.573a5.6,5.6,0,0,0-1.215,2.04,4.952,4.952,0,0,0-.057,2.495,3.3,3.3,0,0,0,6.371,0Z" fill="#fff"/>
      </g>
    </g>
    <g id="Group_64" data-name="Group 64">
      <g id="Group_63" data-name="Group 63">
        <path id="Path_32" data-name="Path 32" d="M1160.946,839.1a1.734,1.734,0,1,0-1.734-1.734,1.751,1.751,0,0,0,1.734,1.734Z" fill="#fff"/>
      </g>
    </g>
    <g id="Group_66" data-name="Group 66">
      <g id="Group_65" data-name="Group 65">
        <path id="Path_33" data-name="Path 33" d="M1175.613,820.455a3.094,3.094,0,1,0-3.094-3.094,3.123,3.123,0,0,0,3.094,3.094Z" fill="#fff"/>
      </g>
    </g>
    <g id="Group_68" data-name="Group 68">
      <g id="Group_67" data-name="Group 67">
        <path id="Path_34" data-name="Path 34" d="M1150.946,821.95l.381-.023a1.91,1.91,0,0,0,1.831-1.394l.009-.05-.786,1.022a.9.9,0,0,0,.279-.174,1.538,1.538,0,0,0,0-2.6.921.921,0,0,0-.279-.174l.786,1.022-.009-.05a1.91,1.91,0,0,0-1.831-1.394l-.381-.023a1.922,1.922,0,1,0,0,3.843Z" fill="#fff"/>
      </g>
    </g>
    <g id="Group_70" data-name="Group 70">
      <g id="Group_69" data-name="Group 69">
        <path id="Path_35" data-name="Path 35" d="M1196.706,874.378c-.44-.467-.867-1.069-1.53-1.207a1.062,1.062,0,0,0-1.191.485,3.666,3.666,0,0,0,.018,2.3,1.618,1.618,0,1,0,2.7-1.574Z" fill="#fff"/>
      </g>
    </g>
    <g id="Group_72" data-name="Group 72">
      <g id="Group_71" data-name="Group 71">
        <path id="Path_36" data-name="Path 36" d="M1195.563,864.985a.8.8,0,0,0,0-1.594.8.8,0,0,0,0,1.594Z" fill="#fff"/>
      </g>
    </g>
    <g id="Group_74" data-name="Group 74">
      <g id="Group_73" data-name="Group 73">
        <path id="Path_37" data-name="Path 37" d="M1211.641,851.952l.618-.224a3.041,3.041,0,0,0,1.342-5.083l-.421-.524a3.43,3.43,0,0,0-3.394-.9,3.489,3.489,0,0,0-1.54,5.831,3.447,3.447,0,0,0,3.4.9Z" fill="#fff"/>
      </g>
    </g>
    <g id="Group_76" data-name="Group 76">
      <g id="Group_75" data-name="Group 75">
        <path id="Path_38" data-name="Path 38" d="M1223.517,872.128c-.352-.653-.71-1.761-1.432-2.068a.91.91,0,0,0-1.219.32c-.439.819,0,1.933.166,2.8a1.36,1.36,0,1,0,2.485-1.048Z" fill="#fff"/>
      </g>
    </g>
    <g id="Group_78" data-name="Group 78">
      <g id="Group_77" data-name="Group 77">
        <path id="Path_39" data-name="Path 39" d="M1255.563,914.543a1.688,1.688,0,1,0-1.688-1.688,1.7,1.7,0,0,0,1.688,1.688Z" fill="#fff"/>
      </g>
    </g>
    <g id="Group_80" data-name="Group 80">
      <g id="Group_79" data-name="Group 79">
        <path id="Path_40" data-name="Path 40" d="M1249.4,888.987a4,4,0,0,0,1.852-1.1,4.089,4.089,0,1,0-6.833-1.8,3.923,3.923,0,0,0,1.879,2.443q.526.234,1.061.45a3.989,3.989,0,0,0,2.041.009Z" fill="#fff"/>
      </g>
    </g>
    <g id="Group_82" data-name="Group 82">
      <g id="Group_81" data-name="Group 81">
        <path id="Path_41" data-name="Path 41" d="M1237.563,843.608c2.69,0,2.69-4.172,0-4.172s-2.691,4.172,0,4.172Z" fill="#fff"/>
      </g>
    </g>
    <g id="Group_84" data-name="Group 84">
      <g id="Group_83" data-name="Group 83">
        <path id="Path_42" data-name="Path 42" d="M1208.713,1123.711a85.457,85.457,0,0,1,8.735,9.213c3.215,3.906,5.5,8.422,8.545,12.406a1.272,1.272,0,0,0,2.313-.975c-2.418-9.272-10.482-17.3-17.918-22.816-1.268-.942-2.83,1.132-1.675,2.172Z" fill="#fff"/>
      </g>
    </g>
    <g id="Group_86" data-name="Group 86">
      <g id="Group_85" data-name="Group 85">
        <path id="Path_43" data-name="Path 43" d="M1163.977,1146.751c7.525,20.074,17.757,41.052,32.4,56.986,1.226,1.334,3.352-.379,2.466-1.9-5.428-9.34-11.739-18.177-17.225-27.5-5.467-9.292-10.658-18.853-15.457-28.505-.6-1.2-2.66-.35-2.184.922Z" fill="#fff"/>
      </g>
    </g>
    <g id="Group_88" data-name="Group 88">
      <g id="Group_87" data-name="Group 87">
        <path id="Path_44" data-name="Path 44" d="M1122.209,1136.3c3.594,8.3,5.944,16.724,8.473,25.372.215.737,1.46.626,1.381-.187-.884-9.063-4.3-17.944-8.68-25.871-.434-.786-1.513-.1-1.174.686Z" fill="#fff"/>
      </g>
    </g>
    <g id="Group_90" data-name="Group 90">
      <g id="Group_89" data-name="Group 89">
        <path id="Path_45" data-name="Path 45" d="M1085.649,1140.505c2.866,12.337,5.859,24.618,9.276,36.82s6.843,24.775,11.921,36.416c.6,1.376,2.413.3,2.228-.939-1.856-12.44-5.616-24.8-9.163-36.851-3.581-12.164-7.565-24.169-11.685-36.156a1.337,1.337,0,0,0-2.577.71Z" fill="#fff"/>
      </g>
    </g>
    <g id="Group_92" data-name="Group 92">
      <g id="Group_91" data-name="Group 91">
        <path id="Path_46" data-name="Path 46" d="M1036.172,1145.16c.084,7.545-.078,14.754.931,22.255.146,1.083,1.72.714,1.8-.243.585-7.465,0-14.563-.336-22.012a1.2,1.2,0,0,0-2.39,0Z" fill="#fff"/>
      </g>
    </g>
    <g id="Group_94" data-name="Group 94">
      <g id="Group_93" data-name="Group 93">
        <path id="Path_47" data-name="Path 47" d="M992.55,1152.128c-5.6,11.542-7.645,25.69-10.533,38.129-1.627,7.008-3.018,14.066-4.514,21.1-1.376,6.469-3.121,13.16-3.565,19.766-.129,1.924,2.463,1.918,3.085.417,2.465-5.954,3.838-12.578,5.437-18.818,1.783-6.959,3.672-13.89,5.325-20.88,1.505-6.361,2.893-12.748,4.307-19.129,1.421-6.411,3.2-13.244,3.255-19.833.01-1.426-2.129-2.132-2.8-.755Z" fill="#fff"/>
      </g>
    </g>
    <g id="Group_96" data-name="Group 96">
      <g id="Group_95" data-name="Group 95">
        <path id="Path_48" data-name="Path 48" d="M950.4,1145.674c-3.745,4.793-6,9.96-6.021,16.109a.659.659,0,0,0,1.289.174,44.491,44.491,0,0,1,6.315-15.063c.646-.936-.878-2.121-1.583-1.22Z" fill="#fff"/>
      </g>
    </g>
    <g id="Group_98" data-name="Group 98">
      <g id="Group_97" data-name="Group 97">
        <path id="Path_49" data-name="Path 49" d="M876.052,1162.911c-8.715,10.9-19.352,21.1-29.838,30.292-5.575,4.887-11.315,9.585-17.3,13.964-5.83,4.265-12.367,7.826-17.932,12.4-1.286,1.056.09,3.223,1.6,2.742,6.752-2.156,13.249-6.481,19.126-10.364a167.458,167.458,0,0,0,17.522-13.407c11.58-10.067,20.162-21.629,28.334-34.458.58-.908-.821-2.023-1.509-1.164Z" fill="#fff"/>
      </g>
    </g>
    <g id="Group_100" data-name="Group 100">
      <g id="Group_99" data-name="Group 99">
        <path id="Path_50" data-name="Path 50" d="M809.078,1151.471c-6.512-.532-13.527,1.516-20.1,1.907-7.374.438-14.742-.239-22.067-.941-1.039-.1-1.156,1.46-.237,1.749a72.3,72.3,0,0,0,22.3,2.975c6.392-.033,15.059-.517,20.539-4.075a.873.873,0,0,0-.437-1.615Z" fill="#fff"/>
      </g>
    </g>
    <g id="Group_102" data-name="Group 102">
      <g id="Group_101" data-name="Group 101">
        <path id="Path_51" data-name="Path 51" d="M1239.936,1112.8a11.154,11.154,0,0,0,1.133.638.764.764,0,0,0,1.129-.648,10.815,10.815,0,0,0-.005-1.286,1.5,1.5,0,1,0-2.257,1.3Z" fill="#fff"/>
      </g>
    </g>
    <g id="Group_104" data-name="Group 104">
      <g id="Group_103" data-name="Group 103">
        <path id="Path_52" data-name="Path 52" d="M1258.421,1142.271a3.82,3.82,0,1,0-3.82-3.82,3.855,3.855,0,0,0,3.82,3.82Z" fill="#fff"/>
      </g>
    </g>
    <g id="Group_106" data-name="Group 106">
      <g id="Group_105" data-name="Group 105">
        <path id="Path_53" data-name="Path 53" d="M1216.8,1113.842a.915.915,0,0,0,0-1.828.915.915,0,0,0,0,1.828Z" fill="#fff"/>
      </g>
    </g>
    <g id="Group_108" data-name="Group 108">
      <g id="Group_107" data-name="Group 107">
        <path id="Path_54" data-name="Path 54" d="M1203.879,1178.159a3,3,0,1,0-3-3,3.028,3.028,0,0,0,3,3Z" fill="#fff"/>
      </g>
    </g>
    <g id="Group_110" data-name="Group 110">
      <g id="Group_109" data-name="Group 109">
        <path id="Path_55" data-name="Path 55" d="M1186.9,1139.047a1.6,1.6,0,0,0,0-3.188,1.595,1.595,0,0,0,0,3.188Z" fill="#fff"/>
      </g>
    </g>
    <g id="Group_112" data-name="Group 112">
      <g id="Group_111" data-name="Group 111">
        <path id="Path_56" data-name="Path 56" d="M1145.585,1193.054l-.412-.055c-2.368-.314-.161,3.908.939,1.636a.953.953,0,0,0,0-1.1c-1.442-2.258-3.178,2.256-.65,1.6l.391-.1c1.192-.31.785-1.839-.268-1.979Z" fill="#fff"/>
      </g>
    </g>
    <g id="Group_114" data-name="Group 114">
      <g id="Group_113" data-name="Group 113">
        <path id="Path_57" data-name="Path 57" d="M1132.963,1128.854a3.209,3.209,0,0,0-1.287-.78c-.941-.334-1.569.791-1.191,1.549a2.639,2.639,0,0,0,.755.954,1.247,1.247,0,0,0,1.724,0,1.229,1.229,0,0,0,0-1.723Z" fill="#fff"/>
      </g>
    </g>
    <g id="Group_116" data-name="Group 116">
      <g id="Group_115" data-name="Group 115">
        <path id="Path_58" data-name="Path 58" d="M1160.687,1174.683l-.033.187a2.676,2.676,0,0,0,1.817,3.2l.123.042-1.333-1.026a3.012,3.012,0,0,0,.74.908,1.787,1.787,0,0,0,2.471,0,3.965,3.965,0,0,0,.867-1.441l-1.025,1.333.163-.08a2.591,2.591,0,0,0,1.2-2.938l-.057-.187a2.591,2.591,0,0,0-2.463-1.876,2.552,2.552,0,0,0-2.466,1.878Z" fill="#fff"/>
      </g>
    </g>
    <g id="Group_118" data-name="Group 118">
      <g id="Group_117" data-name="Group 117">
        <path id="Path_59" data-name="Path 59" d="M1146.428,1219.422a3.748,3.748,0,1,0-3.748-3.748,3.783,3.783,0,0,0,3.748,3.748Z" fill="#fff"/>
      </g>
    </g>
    <g id="Group_120" data-name="Group 120">
      <g id="Group_119" data-name="Group 119">
        <path id="Path_60" data-name="Path 60" d="M1096.191,1130.752a2.165,2.165,0,0,0,1.413.413.7.7,0,0,0,.516-.678,1.9,1.9,0,0,0-.519-1.146,1.031,1.031,0,1,0-1.41,1.411Z" fill="#fff"/>
      </g>
    </g>
    <g id="Group_122" data-name="Group 122">
      <g id="Group_121" data-name="Group 121">
        <path id="Path_61" data-name="Path 61" d="M1129.06,1178.067l-.369.252a1.162,1.162,0,0,0,0,1.984l.369.192a1.406,1.406,0,1,0,0-2.428Z" fill="#fff"/>
      </g>
    </g>
    <g id="Group_124" data-name="Group 124">
      <g id="Group_123" data-name="Group 123">
        <path id="Path_62" data-name="Path 62" d="M1046.468,1186.6a4.266,4.266,0,1,0-4.266-4.266,4.306,4.306,0,0,0,4.266,4.266Z" fill="#fff"/>
      </g>
    </g>
    <g id="Group_126" data-name="Group 126">
      <g id="Group_125" data-name="Group 125">
        <path id="Path_63" data-name="Path 63" d="M1047.593,1145.477a2.379,2.379,0,0,0,.733,3.166l-.686-.892.185.495a1.244,1.244,0,0,0,2.247.294l.3-.432-.892.686a2.373,2.373,0,0,0,1.505-2.874,1.872,1.872,0,0,0-3.388-.443Z" fill="#fff"/>
      </g>
    </g>
    <g id="Group_128" data-name="Group 128">
      <g id="Group_127" data-name="Group 127">
        <path id="Path_64" data-name="Path 64" d="M1064.364,1168.89l-.433-.785.189-.7a1.5,1.5,0,0,0-.223.777c.017.129.035.259.052.388q-.036-.365-.048-.119a1.656,1.656,0,0,0,.8,1.385l-.639-.83c-.065-.351.177-.948-.08-.27a1.164,1.164,0,0,0,.812,1.43,1.548,1.548,0,0,0,1.418-.373.549.549,0,0,0,.124-.112q-.42.313.117-.1a1.65,1.65,0,0,0,.478-1.133,1.781,1.781,0,0,0-1.191-1.676q-.712-.09-.128-.025a1.214,1.214,0,0,0-.415-.069,1.389,1.389,0,0,0-.557.065,1.186,1.186,0,0,0-.28,2.142Z" fill="#fff"/>
      </g>
    </g>
    <g id="Group_130" data-name="Group 130">
      <g id="Group_129" data-name="Group 129">
        <path id="Path_65" data-name="Path 65" d="M1001.859,1153.247a1.6,1.6,0,0,0,0-3.188,1.595,1.595,0,0,0,0,3.188Z" fill="#fff"/>
      </g>
    </g>
    <g id="Group_132" data-name="Group 132">
      <g id="Group_131" data-name="Group 131">
        <path id="Path_66" data-name="Path 66" d="M1025.253,1181.486a4.348,4.348,0,1,0-4.348-4.348,4.389,4.389,0,0,0,4.348,4.348Z" fill="#fff"/>
      </g>
    </g>
    <g id="Group_134" data-name="Group 134">
      <g id="Group_133" data-name="Group 133">
        <path id="Path_67" data-name="Path 67" d="M1014.347,1194.226a1.922,1.922,0,1,0-1.922-1.922,1.94,1.94,0,0,0,1.922,1.922Z" fill="#fff"/>
      </g>
    </g>
    <g id="Group_136" data-name="Group 136">
      <g id="Group_135" data-name="Group 135">
        <path id="Path_68" data-name="Path 68" d="M947.739,1133.089a5.292,5.292,0,0,0,.355.754.661.661,0,0,0,1.133,0,5.184,5.184,0,0,0,.274-.754.922.922,0,0,0-.881-1.157c-.535,0-1.117.6-.881,1.157Z" fill="#fff"/>
      </g>
    </g>
    <g id="Group_138" data-name="Group 138">
      <g id="Group_137" data-name="Group 137">
        <path id="Path_69" data-name="Path 69" d="M980.2,1139.274a6.6,6.6,0,0,0-2.145,2.1,9.74,9.74,0,0,0-.687,1.691,5.336,5.336,0,0,0,3.724,6.559,5.65,5.65,0,0,0,4.109-.538,5.653,5.653,0,0,0,1.6-8.958,5.441,5.441,0,0,0-2.406-1.4,5.272,5.272,0,0,0-4.2.55Z" fill="#fff"/>
      </g>
    </g>
    <g id="Group_140" data-name="Group 140">
      <g id="Group_139" data-name="Group 139">
        <path id="Path_70" data-name="Path 70" d="M971.526,1160.533l.475-.252-1.038.136a1.757,1.757,0,0,0,1.8-.388,1.683,1.683,0,1,0-2.742-.553v-.716c-.061.159-.123.317-.184.476-.387,1.007.88,1.727,1.688,1.3Z" fill="#fff"/>
      </g>
    </g>
    <g id="Group_142" data-name="Group 142">
      <g id="Group_141" data-name="Group 141">
        <path id="Path_71" data-name="Path 71" d="M965.9,1139.515c-.123.086-.245.171-.364.261a.823.823,0,0,0,0,1.4c.12.071.241.136.364.2a1.078,1.078,0,1,0,0-1.862Z" fill="#fff"/>
      </g>
    </g>
    <g id="Group_144" data-name="Group 144">
      <g id="Group_143" data-name="Group 143">
        <path id="Path_72" data-name="Path 72" d="M922.292,1162.765c-.122.724.384-.656.131-.246q.661-.784.3-.435.856-.606.416-.349l1.8-.487-.1.005,2.571,1.065-.13-.147a4.151,4.151,0,0,0-3-1.244,4.513,4.513,0,0,0-3,1.244l-.087.072.849-.656a2.456,2.456,0,0,1-.5.292l.944-.4a5.849,5.849,0,0,0-1.548.641l2.574-.337q.9.429.481.184a1.976,1.976,0,0,1,.776.76,5.665,5.665,0,0,0-.824-1.016l.641,2.423c.124-.628-.2.293-.01-.067q.2-.3-.114.123a2.121,2.121,0,0,1,.3-.288c-.259.189-.294.221-.1.1-.286.1-.326.12-.118.05q-.634.063.248-.045c.348-.05-.241,0-.306-.011a1.643,1.643,0,0,0,1.528-.4,1.537,1.537,0,0,0,.4-1.528,2.908,2.908,0,0,0-2.935-1.921,4.365,4.365,0,0,0-3.449,2.074l1.488-1.145a3.277,3.277,0,0,0-1.972,1.442,5.381,5.381,0,0,0-.474,1.756,4.166,4.166,0,0,0,.663,2.421L919.28,1165c.1,2.969,2.443,4.16,5,4.414a4.086,4.086,0,0,0,3-1.244,4.355,4.355,0,0,0,1.092-4.131c-.009-.041-.018-.082-.026-.122v1.933c-.313.982-.322.793-.138.461a5.049,5.049,0,0,0,.468-1.159,4.879,4.879,0,0,0-.016-2.392,3.306,3.306,0,0,0-6.374,0Z" fill="#fff"/>
      </g>
    </g>
    <g id="Group_146" data-name="Group 146">
      <g id="Group_145" data-name="Group 145">
        <path id="Path_73" data-name="Path 73" d="M922,1136.2a1.734,1.734,0,1,0-1.734-1.734A1.75,1.75,0,0,0,922,1136.2Z" fill="#fff"/>
      </g>
    </g>
    <g id="Group_148" data-name="Group 148">
      <g id="Group_147" data-name="Group 147">
        <path id="Path_74" data-name="Path 74" d="M908.576,1158.41a3.094,3.094,0,1,0-3.094-3.094,3.123,3.123,0,0,0,3.094,3.094Z" fill="#fff"/>
      </g>
    </g>
    <g id="Group_150" data-name="Group 150">
      <g id="Group_149" data-name="Group 149">
        <path id="Path_75" data-name="Path 75" d="M933.035,1149.237l-.38.046c-.762.093-1.708.5-1.831,1.394l-.009.062.786-1.022a3.984,3.984,0,0,0-.584.433,1.524,1.524,0,0,0,.3,2.369.845.845,0,0,0,.278.151l-.786-1.022.009.039a1.9,1.9,0,0,0,1.831,1.394h.38a1.922,1.922,0,0,0,0-3.844Z" fill="#fff"/>
      </g>
    </g>
    <g id="Group_152" data-name="Group 152">
      <g id="Group_151" data-name="Group 151">
        <path id="Path_76" data-name="Path 76" d="M851.666,1149.844c.461.434.951,1.064,1.609,1.164a1.094,1.094,0,0,0,1.3-.737,3.494,3.494,0,0,0-.2-2,1.617,1.617,0,1,0-2.7,1.574Z" fill="#fff"/>
      </g>
    </g>
    <g id="Group_154" data-name="Group 154">
      <g id="Group_153" data-name="Group 153">
        <path id="Path_77" data-name="Path 77" d="M853.5,1160.81a.8.8,0,0,0,0-1.594.8.8,0,0,0,0,1.594Z" fill="#fff"/>
      </g>
    </g>
    <g id="Group_156" data-name="Group 156">
      <g id="Group_155" data-name="Group 155">
        <path id="Path_78" data-name="Path 78" d="M837.559,1173.491l-.522.224a2.909,2.909,0,0,0-1.4,1.818,3.116,3.116,0,0,0,.782,2.959l.432.479c1.785,1.979,5.162.894,5.831-1.54a3.491,3.491,0,0,0-2.437-4.291,3.8,3.8,0,0,0-2.688.351Z" fill="#fff"/>
      </g>
    </g>
    <g id="Group_158" data-name="Group 158">
      <g id="Group_157" data-name="Group 157">
        <path id="Path_79" data-name="Path 79" d="M825.069,1153.713c.467.752.88,1.8,1.764,2.111a.88.88,0,0,0,1.006-.409c.4-.873-.06-1.87-.285-2.75a1.36,1.36,0,1,0-2.485,1.048Z" fill="#fff"/>
      </g>
    </g>
    <g id="Group_160" data-name="Group 160">
      <g id="Group_159" data-name="Group 159">
        <path id="Path_80" data-name="Path 80" d="M790.656,1116.761a1.688,1.688,0,1,0-1.688-1.688,1.7,1.7,0,0,0,1.688,1.688Z" fill="#fff"/>
      </g>
    </g>
    <g id="Group_162" data-name="Group 162">
      <g id="Group_161" data-name="Group 161">
        <path id="Path_81" data-name="Path 81" d="M798.455,1138.462a3.856,3.856,0,0,0-1.814,1.09,4.088,4.088,0,1,0,3.978-1.051,3.9,3.9,0,0,0-2.164-.039Z" fill="#fff"/>
      </g>
    </g>
    <g id="Group_164" data-name="Group 164">
      <g id="Group_163" data-name="Group 163">
        <path id="Path_82" data-name="Path 82" d="M812.948,1187.271c2.69,0,2.69-4.172,0-4.172s-2.69,4.172,0,4.172Z" fill="#fff"/>
      </g>
    </g>
    <g id="Group_166" data-name="Group 166">
      <g id="Group_165" data-name="Group 165">
        <path id="Path_83" data-name="Path 83" d="M875.018,1099c1.806-33.487,6.745-67.272,16.535-99.436a315.7,315.7,0,0,1,19.429-48.039c3.974-8.028,8.431-15.781,13.024-23.467,2.355-3.94,4.512-7.779,6.529-11.9,1-2.05,2.073-4.069,3.135-6.088,1.089-2.072.993-5.118,1.619-7.358,1.4-5.02-4.963-13.085-10.3-10.075-1.732.976-4.659,1.562-6.059,3.016q-2.271,2.358-4.5,4.756a77.619,77.619,0,0,0-8.346,10.661,259.086,259.086,0,0,0-13.3,23.273,286.385,286.385,0,0,0-19.591,50.028c-10.6,36.046-13.593,73.468-7.235,110.566.528,3.078,8.74,10.032,9.062,4.063Z" fill="#fff"/>
      </g>
    </g>
    <g id="Group_168" data-name="Group 168">
      <g id="Group_167" data-name="Group 167">
        <path id="Path_84" data-name="Path 84" d="M862.263,1042.925c11.063-8.222,21.791-17.049,31.27-27.06s17.6-20.746,25.811-31.789A153.222,153.222,0,0,0,938.773,949.5c4.811-12.367,5.066-26.537-2.979-37.665-18.584-25.706-50.168-14.52-74.045-3.9a233.644,233.644,0,0,0-63.943,42.442,230.258,230.258,0,0,0-46.523,61.023c-2.18,4.136,1.206,9.935,3.821,12.944,2.375,2.732,10.4,9.031,14.117,4.6a237.074,237.074,0,0,1,36.173-34.871,230.6,230.6,0,0,1,20.721-14.277c3.8-2.341,7.7-4.5,11.5-6.843,1.849-1.144,4.483-2.07,5.439-4.18.969-2.139.758-4.536.671-6.791a9.5,9.5,0,0,0-4.965-7.928c-4.082-2.041-8.2-4.362-12.748-2.434a111.871,111.871,0,0,0-12.358,6.286,230.589,230.589,0,0,0-61.137,51.822l17.938,17.54A222.66,222.66,0,0,1,880.287,926.5c10.9-4.6,23.125-9.767,35.142-9.582a16.7,16.7,0,0,1,5.719.851c1.362.617,1.491.824.672.02,1.661,1.631.974,1.177.616.444,2.379,4.884.966,11.368-.039,16.427-2.6,13.108-9.492,25.482-15.471,37.278a214.014,214.014,0,0,1-22.835,35.574,257.95,257.95,0,0,1-26.825,29.67c-2.31,2.142,2.476,7.619,5,5.746Z" fill="#fff"/>
      </g>
    </g>
    <g id="Group_170" data-name="Group 170">
      <g id="Group_169" data-name="Group 169">
        <path id="Path_85" data-name="Path 85" d="M876.918,1048.529a124.6,124.6,0,0,1,13.465-12.726c5.17-4.189,10.253-9.13,16.167-12.256,5.574-2.945,10.585-7.178,16.067-10.37a147.347,147.347,0,0,1,18.067-8.909,144.213,144.213,0,0,1,17.753-6.108,20.289,20.289,0,0,1,3.7-.688c.846-.063,4.34.9,1.8-.284-5.347-2.482-4.413-8.924-4.94-4.116a19.816,19.816,0,0,1-1.54,4.935c-4.827,12.332-11.81,24.15-18.9,35.288a254.041,254.041,0,0,1-53.144,59.357c-4.973,4.088-10.137,7.94-15.405,11.639-5.646,3.965-12.007,8.576-19.187,8.657a6.721,6.721,0,0,1-3.04-.566c1.1.355-1.858-1.376-.379-.242-2.1-1.611-.472-.387.019.281.133.181-1.969-3.443-1.233-1.892-2.523-5.317-2.04-11.756-1.918-17.72.088-4.321,1.7-8.292,2.908-12.392,1.156-3.938,2.013-8.012,2.983-12,.769-3.164-5.624-10.47-8.7-7.237a61.694,61.694,0,0,0-11.364,15.9c-3.136,6.492-6.172,13.128-5.328,20.582,1.555,13.742,10.324,27.545,22.883,33.709,14.819,7.275,28.1-.229,40.344-8.817a256.654,256.654,0,0,0,30.906-25.694,267.838,267.838,0,0,0,48.644-64.313c6.019-11.047,15.4-25.705,10.446-38.69-3.006-7.876-9.451-14.488-17.64-16.852-6.863-1.982-13.969.157-20.477,2.376a135.651,135.651,0,0,0-41.133,23c-12.622,10.2-21.934,24.56-29.261,38.883-1.59,3.1,4.641,10.333,7.44,7.275Z" fill="#fff"/>
      </g>
    </g>
    <g id="Group_172" data-name="Group 172">
      <g id="Group_171" data-name="Group 171">
        <path id="Path_86" data-name="Path 86" d="M1027.157,932.652c-12.36,4.075-21.946,14.4-30.12,24.144a157.029,157.029,0,0,0-21.184,32.872,160.777,160.777,0,0,0-12.245,37.339c-2.531,12.289-5.262,28.1-.817,40.2,5.409,14.719,20.578,24.074,36.039,20.305,13.3-3.244,24.416-16.868,33.2-26.557,19.232-21.223,34.421-45.874,47.773-71.1.8-1.52,1.6-3.047,2.388-4.573l-19.261-15.938a129.288,129.288,0,0,0-10.152,35.934,119.532,119.532,0,0,0-.841,19.492c.088,3.2.309,6.393.56,9.58.327,4.145,2.928,7.7,4.151,11.6,1.286,4.095,12.851,13.156,13.637,4.44.192-2.133,1.654-3.486,1.747-5.6.126-2.878-.113-5.77-.147-8.653a146.92,146.92,0,0,1,1.025-17.515,109.012,109.012,0,0,1,9.28-33.339c4.032-8.9-13.892-26.3-19.261-15.938-11.488,22.168-24.169,43.816-39.9,63.266a206.678,206.678,0,0,1-26,27.093c-4.036,3.455-8.977,6.884-14.468,7.077a9.826,9.826,0,0,1-3.988-.715,7.466,7.466,0,0,1,3.058,3.509,15.735,15.735,0,0,1-.52-3.419c-.859-22.243,6.071-45.112,16-64.763a148.746,148.746,0,0,1,18.37-28.037c7.646-9.193,17.166-16.711,24.017-26.506,3.829-5.471-6.739-16.034-12.337-14.188Z" fill="#fff"/>
      </g>
    </g>
    <g id="Group_174" data-name="Group 174">
      <g id="Group_173" data-name="Group 173">
        <path id="Path_87" data-name="Path 87" d="M1024.663,934.067c-2.9,1.348-5.839,2.036-8.406,4.033a74.79,74.79,0,0,0-6.871,5.741,132.621,132.621,0,0,1-13.38,11.446c-9.447,7.13-19.948,12.8-30.037,18.958-2.344,1.43-4.96,3.606-7.827,3.795.365-.024-2.865-.421-2.185-.094a9.71,9.71,0,0,1,4.244,5.127,15.531,15.531,0,0,1,.255-5.73c.068-.431.556-2.413,0-.235.219-.851.5-1.685.784-2.516,2.215-6.466,6.017-12.4,9.869-18,9.628-13.978,22.2-27.1,34.5-39.231,10.425-10.284,21.3-20.418,33.135-29.081a55.513,55.513,0,0,1,4.746-3.163c.639-.373-1.946.844.049.062.186-.073.38-.128.571-.184-1.594.471-4.723-.215-6.528-1.363l-4.965-4.134q-4.653-14.429-4.016-7.488.1,1.93.222,3.861c.145,2.385.343,4.768.69,7.132a84.4,84.4,0,0,0,4.247,15.629,64.359,64.359,0,0,0,18.027,26.773c3.054,2.743,5.37,0,3.681-3.2a70.543,70.543,0,0,1-6.441-17.826c-1.235-5.6-.783-11.366-.748-17.051.043-6.974.571-11.83-4.162-17.7-3.211-3.985-8.067-6.611-13.182-5.707-3.513.621-7.525,4.178-10.32,6.258-5.316,3.956-10.367,8.276-15.339,12.651a393.188,393.188,0,0,0-37.56,37.608c-9.929,11.469-20.854,24.405-25.773,39.006-3.657,10.856-1.965,21.224,4.909,30.412,4.423,5.911,12.545,9.445,19.781,9.535,7.012.087,12.594-4.729,18.1-8.43a283.107,283.107,0,0,0,26.7-19.927,133.8,133.8,0,0,0,11.658-11.431,41.214,41.214,0,0,0,5.33-7.468c2.04-3.579,2.45-7.076,3.416-11.017.694-2.83-4.11-8.47-7.169-7.05Z" fill="#fff"/>
      </g>
    </g>
    <g id="Group_176" data-name="Group 176">
      <g id="Group_175" data-name="Group 175">
        <path id="Path_88" data-name="Path 88" d="M1070.554,1050.622a94.741,94.741,0,0,1,1.6-16.538c1.281-6.175,1.6-12.48,2.5-18.733a210.668,210.668,0,0,1,8.386-36.437,183.465,183.465,0,0,1,41.785-69.5l-17.955-17.556c-29.137,61.969-14.438,140.815,29.168,192.258,2.735,3.226,7.8,6.951,12.35,5.615,4.335-1.273,4.171-6.791,2.686-10.127a140.869,140.869,0,0,1,11.785-134.485c4.443-6.6,10.154-11.766,15.73-17.341,4.322-4.321,11.262-8.377,17.434-7.893,2.213.173,3.149-1.829,2.809-3.747a9.229,9.229,0,0,0-5.842-6.721,92.618,92.618,0,0,0-12.557-3.028c-3.675-.671-8.71,1.257-12.208,2.254-8.464,2.413-15.041,8.352-20.572,14.982-11.283,13.524-18.5,31.162-23.076,47.988a160.742,160.742,0,0,0,8.015,106.941l15.036-4.512a144.191,144.191,0,0,1-21.8-35.517,169.254,169.254,0,0,1-11.905-43.155c-4.268-29.635-.31-60.368,12.135-87.631,1.974-4.325-1.06-9.775-3.825-12.956-2.548-2.931-10.162-8.834-14.13-4.6a194.3,194.3,0,0,0-43.5,73.478,173.774,173.774,0,0,0-7.9,39.867c-.5,6.759-1.01,13.868-.173,20.609.9,7.269,2.252,14.606,3.586,21.81a9.874,9.874,0,0,0,4.781,6.444c1.964,1.116,5.551,1.394,5.645-1.769Z" fill="#fff"/>
      </g>
    </g>
    <g id="Group_178" data-name="Group 178">
      <g id="Group_177" data-name="Group 177">
        <path id="Path_89" data-name="Path 89" d="M1150.061,1010.831c.894-3.731.944-8.433,2.472-11.9.967-2.2,1.225-4.762,1.856-7.074.673-2.466,1.867-4.627,2.682-7.033a164.746,164.746,0,0,1,13.142-29.506c4.818-8.322,10.876-15.995,18.545-21.858,3.081-2.356,9.383-4.066,11-7.631,2.488-5.492.346-11.8-5.69-15.23-4.854-2.761-9.681-3.393-14.65-.769a53.841,53.841,0,0,0-11.595,8.233c-7.655,7.1-13.453,16.2-18,25.522-9.433,19.325-13.51,45.018-5.228,65.467.71,1.754,4.651,5.2,5.469,1.781Z" fill="#fff"/>
      </g>
    </g>
    <g id="Group_180" data-name="Group 180">
      <g id="Group_179" data-name="Group 179">
        <path id="Path_90" data-name="Path 90" d="M869.4,1149.27c31.1-13.737,57.935-35.7,80.746-60.659l-9.546-5.557c-2.947,16.843-.267,33.831,6.482,49.43,1.347,3.113,5.452,3.371,8.064,2.115,36.394-17.5,70.992-39.484,100-67.758l-9.257-1.193c12.482,25.59,32.972,52.614,61.526,60.826,4.985,1.434,9.244-4.22,6.646-8.645a135.148,135.148,0,0,1-18.662-67.708l-11.545,1.562a145.464,145.464,0,0,0,90.273,86.27c5.824,1.9,9.533-5.709,5.706-9.8a48.025,48.025,0,0,1-11.865-23.727c-1.726-8.464-.427-17.906.4-26.423.393-4.037-5.08-4.663-6.988-1.893-12.644,18.358-3.9,45.3,10.157,60.336l5.706-9.8c-37.207-12.157-68.144-41.451-82.057-78.085-2.258-5.946-11.59-5.443-11.545,1.563a147.371,147.371,0,0,0,20.253,73.649l6.646-8.645c-25.553-7.354-43.391-32.686-54.477-55.425-1.7-3.489-6.7-3.688-9.257-1.193-28.369,27.644-62.133,48.646-97.61,65.915l8.064,2.115c-5.883-13.42-7.06-27.538-5.442-41.962.54-4.81-6.73-7.781-9.75-4.039-20.995,26.021-46.965,46.864-74.7,65.255a2.017,2.017,0,0,0,2.036,3.479Z" fill="#fff"/>
      </g>
    </g>
    <g id="Group_182" data-name="Group 182">
      <g id="Group_181" data-name="Group 181">
        <path id="Path_91" data-name="Path 91" d="M909.014,888.55c7.694-1.7,15.32-3.687,23.015-5.377,8.3-1.822,16.747-3.594,24.894-5.968l-6.339-6.339q-5.012,22.044-9.673,44.17c-1.061,5.006,5.66,10.34,9.481,5.519a215.2,215.2,0,0,1,127.334-77.6l-6.666-8.671a102.912,102.912,0,0,0-3.81,91.852c2.134,4.785,9.606,3.2,10.771-1.408,7.756-30.674,37.593-51.579,66.014-61.509l-7.23-4.1c4.656,24.948-6.982,49.172-13.056,72.832-1.879,7.318,8.355,9.724,11.029,3.041a53.922,53.922,0,0,1,23.6-26.789c13.031-7.349,26.6-5.287,40.843-5.091,3.427.047,4.324-4.414,1.668-6.158-13.921-9.143-32.69-5.919-46.875,1.122-14.01,6.953-24.375,19.618-30.266,33.876l11.029,3.041c7.006-26.072,18.443-51.448,13.361-79-.555-3.009-4.391-5.09-7.23-4.1-32.3,11.208-65.454,34.94-74.254,69.711l10.771-1.408c-11.348-25.457-9.7-55.676,3.827-79.945,2.654-4.762-1.663-9.641-6.666-8.671-51.887,10.058-99.757,39.218-132.218,80.966l9.481,5.519q4.487-22.191,8.671-44.446c.671-3.593-2.318-7.681-6.339-6.339-7.521,2.512-14.724,5.764-22.12,8.623-8,3.091-16.008,6.16-23.946,9.405a1.688,1.688,0,0,0,.9,3.253Z" fill="#fff"/>
      </g>
    </g>
    <g id="Group_184" data-name="Group 184">
      <g id="Group_183" data-name="Group 183">
        <path id="Path_92" data-name="Path 92" d="M822.214,1049.124c1.62-5.738,3.49-11.372,5.26-17.062.786-2.527,1.614-5.04,2.415-7.562.821-2.584,1.342-6.8,3.165-8.876,4.343-4.938-3.125-12.19-7.159-7.159-3.739,4.662-6.516,10.063-10.084,14.88a141.035,141.035,0,0,1-12.316,13.994c-4.3,4.429-8.748,8.7-13.206,12.968-2.1,2.014-4.258,4.116-7.06,5.106-1.912.676-5.723-.465-5.278-2.976.35-1.979-1.827-4.566-3.891-2.991-5.513,4.208-3.561,12.166,1.567,15.869,7.878,5.691,17.207-1.33,22.916-6.754,6.91-6.567,13.694-13.271,19.932-20.486,6.071-7.023,13.421-15.558,15.882-24.684h-9.763c.558,2.268-.465,5.112-.879,7.35-.6,3.265-1.095,6.552-1.689,9.819-1.069,5.882-2.022,11.761-3.246,17.617-.468,2.234,2.8,3.173,3.434.947Z" fill="#fff"/>
      </g>
    </g>
    <g id="Group_186" data-name="Group 186">
      <g id="Group_185" data-name="Group 185">
        <path id="Path_93" data-name="Path 93" d="M1166.99,1023.123c-.432,1.222-.86,2.432-1.355,3.63-1.487,3.6,5.4,5.262,5.617.76.783-15.953,4.484-35.1,14.9-47.837l-7.834-6.045c-4.153,6.4-5.471,15.759-6.3,23.212a37.514,37.514,0,0,0,5.092,23.938c8.021,12.936,25.535,16.843,39.4,12.656,15.1-4.562,25.616-18.318,30.677-32.648,2.857-8.091,2.479-17.951-3.7-24.321a15.66,15.66,0,0,0-17.747-3.431c-1.864.882-.972,4.025,1.053,3.887,6.388-.436,9.033,4.439,10.386,9.839,1.485,5.924-1.888,13.064-4.635,18.132-4.9,9.039-13.723,17.139-24.281,18.361-9.542,1.1-19.643-3.26-23.294-12.535-2.136-5.425-1.768-11.536-.941-17.185.852-5.822,3.374-11.521,3.593-17.388.182-4.861-7.048-6.952-9.3-2.518-4.332,8.551-8.521,16.59-11,25.937a74.222,74.222,0,0,0-1.785,27.945l5.328-1.443c-.66-1.051-1.256-2.125-1.858-3.21a1.113,1.113,0,0,0-2.013.264Z" fill="#fff"/>
      </g>
    </g>
    <g id="Group_188" data-name="Group 188">
      <g id="Group_187" data-name="Group 187">
        <path id="Path_94" data-name="Path 94" d="M1223.056,1045.394c-4.09-7.151-7.3-14.647-8.283-22.892-1.048-8.749,1.747-16.457,3.126-24.9a1.89,1.89,0,0,0-3.134-1.824c-6.926,6.515-7.917,17.829-6.9,26.722,1.113,9.684,5.448,18.9,13.261,24.816,1.182.894,2.574-.79,1.925-1.925Z" fill="#fff"/>
      </g>
    </g>
    <g id="Group_190" data-name="Group 190">
      <g id="Group_189" data-name="Group 189">
        <path id="Path_95" data-name="Path 95" d="M807.838,1064c-11.185-9.131-11.559-23.229-7.759-35.986.335-1.126-1.06-2.374-2.1-1.615-14.628,10.68-6.281,34.348,8.354,40.186,1.42.567,2.678-1.627,1.5-2.585Z" fill="#fff"/>
      </g>
    </g>
    <g id="Group_192" data-name="Group 192">
      <g id="Group_191" data-name="Group 191">
        <path id="Path_96" data-name="Path 96" d="M1018.006,1015.916c1.217-10.841,8.307-16.393,16.061-22.932,1.132-.955-.11-2.505-1.323-2.272-10.992,2.113-17.03,15.1-17.645,25.2-.115,1.9,2.7,1.82,2.907,0Z" fill="#fff"/>
      </g>
    </g>
    <g id="Group_194" data-name="Group 194">
      <g id="Group_193" data-name="Group 193">
        <path id="Path_97" data-name="Path 97" d="M1028.359,1010.687c-4.669-7.344-4.711-16.664-6-25-.163-1.053-1.525-.93-2.013-.263-6.733,9.193-1.6,20.167,5.434,27.248a1.647,1.647,0,0,0,2.576-1.988Z" fill="#fff"/>
      </g>
    </g>
    <g id="Group_196" data-name="Group 196">
      <g id="Group_195" data-name="Group 195">
        <path id="Path_98" data-name="Path 98" d="M953.156,908.686c2.5-5.257,5.166-10.416,7.459-15.769,2.169-5.062,5.319-10.35,4.782-16a1.565,1.565,0,0,0-2.641-1.094c-3.861,3.315-5.205,8.325-6.952,12.955-2.291,6.071-4.2,12.238-6.247,18.392-.7,2.1,2.639,3.538,3.6,1.517Z" fill="#fff"/>
      </g>
    </g>
    <g id="Group_198" data-name="Group 198">
      <g id="Group_197" data-name="Group 197">
        <path id="Path_99" data-name="Path 99" d="M1072.582,918.049c1.731-6.689,3.131-13.442,4.9-20.118,1.589-5.987,5.017-11.8,3.8-18.13a2.019,2.019,0,0,0-2.927-1.191c-6.29,2.9-8.18,10.727-9.558,16.927a39.843,39.843,0,0,0,1.069,22.513,1.417,1.417,0,0,0,2.712,0Z" fill="#fff"/>
      </g>
    </g>
    <g id="Group_200" data-name="Group 200">
      <g id="Group_199" data-name="Group 199">
        <path id="Path_100" data-name="Path 100" d="M1140,917.1c4.336-6.407,8.643-12.712,12.467-19.449,3.169-5.583,7.584-12.246,7.946-18.8.077-1.4-1.8-2.635-3-1.72-5.238,3.995-8.24,11.135-11.112,16.918-3.535,7.117-6.426,14.391-9.388,21.752-.753,1.87,2.077,2.788,3.085,1.3Z" fill="#fff"/>
      </g>
    </g>
    <g id="Group_202" data-name="Group 202">
      <g id="Group_201" data-name="Group 201">
        <path id="Path_101" data-name="Path 101" d="M1117.712,1106.532a74.9,74.9,0,0,1-14.689-19.51c-3.328-6.191-4.154-14.745-8.71-20.09a1.112,1.112,0,0,0-1.841.486c-2.369,7.042,2.91,16.139,6.305,22.086,4.332,7.589,10.439,13.815,17.316,19.126,1.213.937,2.709-1.078,1.619-2.1Z" fill="#fff"/>
      </g>
    </g>
    <g id="Group_204" data-name="Group 204">
      <g id="Group_203" data-name="Group 203">
        <path id="Path_102" data-name="Path 102" d="M1048,1059.119c-3.818,4.682-3.992,12.655-4.656,18.5-.673,5.93-2.338,13.519,1.6,18.565a1.724,1.724,0,0,0,2.453,0c3.7-4.466,2.845-11.162,3.177-16.643.194-3.2.431-6.4.685-9.594.265-3.334.957-6.847-.207-10.025-.423-1.157-2.109-1.968-3.055-.807Z" fill="#fff"/>
      </g>
    </g>
    <g id="Group_206" data-name="Group 206">
      <g id="Group_205" data-name="Group 205">
        <path id="Path_103" data-name="Path 103" d="M946.345,1081.3c-4.781,5.131-7.587,12.682-11.189,18.693-3.71,6.192-8.964,11.858-11.374,18.7a1.887,1.887,0,0,0,2.754,2.117c6.248-4.107,10.09-11.484,13.773-17.805,3.5-6.007,8.108-13.587,8.516-20.678a1.463,1.463,0,0,0-2.48-1.027Z" fill="#fff"/>
      </g>
    </g>
    <g id="Group_208" data-name="Group 208">
      <g id="Group_207" data-name="Group 207">
        <path id="Path_104" data-name="Path 104" d="M1000.163,867.676c-1.268-4.607-2.108-9.818-5.587-13.346a1.279,1.279,0,0,0-2.161.9c-.513,4.93,2.188,9.607,4.064,14,.914,2.144,4.275.592,3.684-1.553Z" fill="#fff"/>
      </g>
    </g>
    <g id="Group_210" data-name="Group 210">
      <g id="Group_209" data-name="Group 209">
        <path id="Path_105" data-name="Path 105" d="M1007.086,864.292c.549-6.3,1.378-12.4,1.37-18.747-.005-4.455.353-10.2-4.013-12.786a1.766,1.766,0,0,0-1.8,0c-4.223,2.8-3.689,8.3-3.484,12.786.292,6.371,1.408,12.453,2.253,18.747.48,3.573,5.348,3.72,5.672,0Z" fill="#fff"/>
      </g>
    </g>
    <g id="Group_212" data-name="Group 212">
      <g id="Group_211" data-name="Group 211">
        <path id="Path_106" data-name="Path 106" d="M1006.336,866.679A98.169,98.169,0,0,0,1015.9,854.9c2.6-3.933,6.4-8.225,5.548-13.175a2.092,2.092,0,0,0-2.566-1.457c-4.262,1.184-6.369,5.738-8.514,9.3a109.611,109.611,0,0,0-7.36,15.177c-.77,1.872,2.054,3.348,3.331,1.937Z" fill="#fff"/>
      </g>
    </g>
    <g id="Group_214" data-name="Group 214">
      <g id="Group_213" data-name="Group 213">
        <path id="Path_107" data-name="Path 107" d="M1107.189,875.823q-.858-4.215-1.715-8.429c-.429-2.11-1.046-4.552-3-5.669a1.306,1.306,0,0,0-1.764.462c-1.216,2.017-.384,4.328.163,6.476.7,2.757,1.747,5.471,2.612,8.181a1.924,1.924,0,0,0,3.707-1.021Z" fill="#fff"/>
      </g>
    </g>
    <g id="Group_216" data-name="Group 216">
      <g id="Group_215" data-name="Group 215">
        <path id="Path_108" data-name="Path 108" d="M1111.1,876.016c2.725-7.26,5.932-14.209,8.053-21.708,1.737-6.14,6.293-15,1.752-20.592-1.053-1.3-2.868-1.115-4.2-.542-5.918,2.539-6.109,12.95-7.286,18.45-1.686,7.877-2.128,15.8-3.149,23.738-.378,2.943,3.933,3.054,4.834.654Z" fill="#fff"/>
      </g>
    </g>
    <g id="Group_218" data-name="Group 218">
      <g id="Group_217" data-name="Group 217">
        <path id="Path_109" data-name="Path 109" d="M1116.568,871.723a58.472,58.472,0,0,1,8.3-12.208c3.144-3.662,7.081-6.641,9.876-10.571.879-1.236-.561-2.6-1.8-2.341-10.608,2.191-16.926,14.32-19.679,23.729-.565,1.937,2.391,3.254,3.3,1.391Z" fill="#fff"/>
      </g>
    </g>
    <g id="Group_220" data-name="Group 220">
      <g id="Group_219" data-name="Group 219">
        <path id="Path_110" data-name="Path 110" d="M1010.865,1110.965c.187-2.734.4-5.468.549-8.2.121-2.174-.155-5.032-2.1-6.282a1.321,1.321,0,0,0-1.349,0c-1.811,1.163-1.9,3.247-2.068,5.256-.249,3.009.31,6.223.516,9.231a2.228,2.228,0,0,0,4.453,0Z" fill="#fff"/>
      </g>
    </g>
    <g id="Group_222" data-name="Group 222">
      <g id="Group_221" data-name="Group 221">
        <path id="Path_111" data-name="Path 111" d="M1006.942,1094.57a97.57,97.57,0,0,0,8.2,15.935c2.67,4.147,5.973,12.133,11.862,11.6a2.946,2.946,0,0,0,2.53-1.451c2.274-5.069-1.681-8.9-4.708-12.774a112.959,112.959,0,0,0-14.164-15.479c-1.5-1.321-4.644-.073-3.722,2.166Z" fill="#fff"/>
      </g>
    </g>
    <g id="Group_224" data-name="Group 224">
      <g id="Group_223" data-name="Group 223">
        <path id="Path_112" data-name="Path 112" d="M1028.638,1096.813a20.687,20.687,0,0,1-9.232-3.206c-2.52-1.735-4.978-3.437-8.128-2.937a2.4,2.4,0,0,0-1.789,2.35c.7,7.836,13.286,8.433,19.149,7.964a2.087,2.087,0,0,0,0-4.171Z" fill="#fff"/>
      </g>
    </g>
  </g>
</svg>
